<svg width="20" height="20" viewBox="0 0 20 20" fill="none" xmlns="http://www.w3.org/2000/svg">
<path d="M15 14.15H10.0084C9.09169 14.15 8.38335 14.9333 7.94169 15.7333C7.59206 16.3894 7.03318 16.9097 6.35387 17.2116C5.67456 17.5136 4.91382 17.5798 4.19258 17.3997C3.47133 17.2196 2.83098 16.8036 2.37331 16.2178C1.91564 15.632 1.66692 14.9101 1.66669 14.1667C1.67502 13.5833 1.83335 13 2.14169 12.5" stroke="black" stroke-opacity="0.8" stroke-width="1.8" stroke-linecap="round" stroke-linejoin="round"/>
<path d="M5 14.1666L7.60833 9.3499C8.05 8.54157 7.69167 7.53324 7.19167 6.76657C6.95568 6.38916 6.79767 5.9683 6.72697 5.52883C6.65626 5.08936 6.67429 4.64018 6.77999 4.20779C6.88569 3.77541 7.07692 3.36857 7.3424 3.01128C7.60788 2.65399 7.94223 2.3535 8.32573 2.12752C8.70922 1.90154 9.13409 1.75466 9.57526 1.69555C10.0164 1.63643 10.465 1.66627 10.8944 1.78331C11.3239 1.90035 11.7256 2.10222 12.0758 2.37701C12.4259 2.65179 12.7175 2.99393 12.9333 3.38324" stroke="black" stroke-opacity="0.8" stroke-width="1.8" stroke-linecap="round" stroke-linejoin="round"/>
<path d="M10 5L12.6083 9.775C13.05 10.5833 14.0833 10.8333 15 10.8333C15.8841 10.8333 16.7319 11.1845 17.357 11.8096C17.9821 12.4348 18.3333 13.2826 18.3333 14.1667C18.3333 15.0507 17.9821 15.8986 17.357 16.5237C16.7319 17.1488 15.8841 17.5 15 17.5" stroke="black" stroke-opacity="0.8" stroke-width="1.8" stroke-linecap="round" stroke-linejoin="round"/>
</svg>
