<svg width="488" height="345" viewBox="0 0 488 345" fill="none" xmlns="http://www.w3.org/2000/svg">
<rect width="488" height="43" fill="#FF6900"/>
<path d="M403.808 19.5817C403.751 19.0943 403.517 18.7159 403.106 18.4465C402.696 18.1771 402.192 18.0425 401.596 18.0425C401.16 18.0425 400.778 18.113 400.451 18.2541C400.127 18.3952 399.874 18.5892 399.691 18.8361C399.511 19.083 399.422 19.3636 399.422 19.6779C399.422 19.9408 399.484 20.1669 399.609 20.3561C399.738 20.5421 399.901 20.6976 400.1 20.8227C400.299 20.9445 400.507 21.0456 400.725 21.1257C400.943 21.2027 401.144 21.2652 401.326 21.3133L402.327 21.5827C402.584 21.65 402.869 21.743 403.183 21.8617C403.501 21.9803 403.804 22.1423 404.092 22.3475C404.384 22.5495 404.625 22.8093 404.814 23.1267C405.003 23.4442 405.098 23.8338 405.098 24.2956C405.098 24.8279 404.958 25.3089 404.679 25.7386C404.403 26.1683 403.999 26.5098 403.467 26.7631C402.938 27.0165 402.295 27.1431 401.538 27.1431C400.833 27.1431 400.222 27.0293 399.705 26.8016C399.192 26.5739 398.788 26.2565 398.493 25.8492C398.202 25.442 398.036 24.969 397.998 24.4302H399.229C399.261 24.8022 399.386 25.1101 399.604 25.3538C399.826 25.5943 400.105 25.7739 400.441 25.8925C400.781 26.008 401.147 26.0657 401.538 26.0657C401.993 26.0657 402.402 25.9919 402.765 25.8444C403.127 25.6937 403.414 25.4853 403.626 25.2191C403.837 24.9497 403.943 24.6355 403.943 24.2763C403.943 23.9492 403.852 23.6831 403.669 23.4779C403.486 23.2726 403.246 23.1059 402.947 22.9776C402.649 22.8493 402.327 22.7371 401.981 22.6409L400.769 22.2946C399.999 22.0733 399.39 21.7574 398.941 21.347C398.492 20.9365 398.267 20.3994 398.267 19.7356C398.267 19.1841 398.416 18.703 398.715 18.2926C399.016 17.8789 399.42 17.5583 399.927 17.3306C400.437 17.0997 401.006 16.9842 401.634 16.9842C402.269 16.9842 402.834 17.0981 403.327 17.3258C403.821 17.5502 404.213 17.8581 404.501 18.2493C404.793 18.6405 404.947 19.0846 404.963 19.5817H403.808ZM409.506 27.1239C408.839 27.1239 408.254 26.9652 407.751 26.6477C407.251 26.3302 406.859 25.8861 406.577 25.3153C406.298 24.7445 406.159 24.0775 406.159 23.3143C406.159 22.5447 406.298 21.8729 406.577 21.2989C406.859 20.7249 407.251 20.2792 407.751 19.9617C408.254 19.6442 408.839 19.4855 409.506 19.4855C410.173 19.4855 410.757 19.6442 411.257 19.9617C411.761 20.2792 412.152 20.7249 412.431 21.2989C412.713 21.8729 412.854 22.5447 412.854 23.3143C412.854 24.0775 412.713 24.7445 412.431 25.3153C412.152 25.8861 411.761 26.3302 411.257 26.6477C410.757 26.9652 410.173 27.1239 409.506 27.1239ZM409.506 26.1042C410.013 26.1042 410.43 25.9743 410.757 25.7145C411.084 25.4548 411.326 25.1133 411.483 24.69C411.641 24.2667 411.719 23.8081 411.719 23.3143C411.719 22.8205 411.641 22.3603 411.483 21.9338C411.326 21.5073 411.084 21.1626 410.757 20.8997C410.43 20.6367 410.013 20.5052 409.506 20.5052C409 20.5052 408.583 20.6367 408.256 20.8997C407.929 21.1626 407.687 21.5073 407.53 21.9338C407.372 22.3603 407.294 22.8205 407.294 23.3143C407.294 23.8081 407.372 24.2667 407.53 24.69C407.687 25.1133 407.929 25.4548 408.256 25.7145C408.583 25.9743 409 26.1042 409.506 26.1042ZM417.477 19.5817V20.5437H413.494V19.5817H417.477ZM414.687 26.97V18.562C414.687 18.1387 414.787 17.7859 414.986 17.5037C415.184 17.2215 415.443 17.0099 415.76 16.8688C416.077 16.7277 416.413 16.6572 416.765 16.6572C417.044 16.6572 417.272 16.6796 417.448 16.7245C417.625 16.7694 417.756 16.8111 417.843 16.8496L417.516 17.8308C417.458 17.8116 417.378 17.7875 417.275 17.7587C417.176 17.7298 417.044 17.7154 416.881 17.7154C416.506 17.7154 416.235 17.81 416.068 17.9992C415.904 18.1884 415.823 18.4658 415.823 18.8313V26.97H414.687ZM421.881 19.5817V20.5437H418.052V19.5817H421.881ZM419.168 17.8116H420.304V24.8535C420.304 25.1742 420.35 25.4147 420.443 25.575C420.539 25.7322 420.661 25.838 420.809 25.8925C420.959 25.9438 421.118 25.9695 421.285 25.9695C421.41 25.9695 421.512 25.9631 421.593 25.9502C421.673 25.9342 421.737 25.9214 421.785 25.9118L422.016 26.9315C421.939 26.9604 421.832 26.9892 421.694 27.0181C421.556 27.0501 421.381 27.0662 421.169 27.0662C420.849 27.0662 420.534 26.9972 420.227 26.8593C419.922 26.7215 419.669 26.5114 419.467 26.2292C419.268 25.947 419.168 25.5911 419.168 25.1614V17.8116ZM424.863 26.97L422.612 19.5817H423.805L425.401 25.2383H425.478L427.056 19.5817H428.268L429.827 25.2191H429.904L431.501 19.5817H432.694L430.442 26.97H429.327L427.71 21.2941H427.595L425.979 26.97H424.863ZM435.968 27.1431C435.5 27.1431 435.075 27.0549 434.694 26.8786C434.312 26.699 434.009 26.4409 433.785 26.1042C433.56 25.7642 433.448 25.3538 433.448 24.8728C433.448 24.4495 433.531 24.1064 433.698 23.8434C433.865 23.5773 434.088 23.3688 434.367 23.2181C434.646 23.0674 434.954 22.9552 435.29 22.8814C435.63 22.8044 435.972 22.7435 436.315 22.6986C436.764 22.6409 437.128 22.5976 437.407 22.5687C437.689 22.5367 437.894 22.4838 438.022 22.41C438.154 22.3363 438.22 22.208 438.22 22.0252V21.9867C438.22 21.5121 438.09 21.1434 437.83 20.8804C437.573 20.6175 437.184 20.486 436.661 20.486C436.119 20.486 435.694 20.6046 435.386 20.8419C435.079 21.0792 434.862 21.3326 434.737 21.6019L433.66 21.2171C433.852 20.7682 434.109 20.4186 434.429 20.1685C434.753 19.9152 435.106 19.7388 435.487 19.6394C435.872 19.5368 436.251 19.4855 436.623 19.4855C436.86 19.4855 437.132 19.5143 437.44 19.5721C437.751 19.6266 438.051 19.7404 438.34 19.9136C438.632 20.0867 438.874 20.3481 439.066 20.6976C439.259 21.0472 439.355 21.5153 439.355 22.1022V26.97H438.22V25.9695H438.162C438.085 26.1298 437.957 26.3014 437.777 26.4842C437.597 26.6669 437.359 26.8225 437.06 26.9507C436.762 27.079 436.398 27.1431 435.968 27.1431ZM436.142 26.1234C436.591 26.1234 436.969 26.0352 437.277 25.8588C437.588 25.6825 437.822 25.4548 437.979 25.1758C438.139 24.8968 438.22 24.6034 438.22 24.2956V23.2566C438.171 23.3143 438.066 23.3672 437.902 23.4153C437.742 23.4602 437.556 23.5003 437.344 23.5356C437.136 23.5676 436.932 23.5965 436.733 23.6222C436.538 23.6446 436.379 23.6638 436.257 23.6799C435.962 23.7184 435.686 23.7809 435.43 23.8675C435.176 23.9508 434.971 24.0775 434.814 24.2475C434.66 24.4142 434.583 24.6419 434.583 24.9305C434.583 25.3249 434.729 25.6231 435.021 25.8252C435.316 26.024 435.689 26.1234 436.142 26.1234ZM441.027 26.97V19.5817H442.123V20.6976H442.2C442.335 20.3321 442.579 20.0354 442.931 19.8078C443.284 19.5801 443.682 19.4662 444.124 19.4662C444.208 19.4662 444.312 19.4679 444.437 19.4711C444.562 19.4743 444.657 19.4791 444.721 19.4855V20.6399C444.682 20.6303 444.594 20.6159 444.456 20.5966C444.322 20.5742 444.179 20.5629 444.028 20.5629C443.669 20.5629 443.348 20.6383 443.066 20.789C442.787 20.9365 442.566 21.1418 442.402 21.4047C442.242 21.6645 442.162 21.9611 442.162 22.2946V26.97H441.027ZM448.539 27.1239C447.827 27.1239 447.213 26.9668 446.697 26.6525C446.184 26.335 445.788 25.8925 445.509 25.3249C445.233 24.7541 445.095 24.0903 445.095 23.3336C445.095 22.5768 445.233 21.9098 445.509 21.3326C445.788 20.7521 446.176 20.3 446.673 19.9761C447.173 19.649 447.757 19.4855 448.424 19.4855C448.809 19.4855 449.189 19.5496 449.564 19.6779C449.939 19.8062 450.281 20.0146 450.588 20.3032C450.896 20.5886 451.142 20.967 451.324 21.4384C451.507 21.9098 451.598 22.4902 451.598 23.1796V23.6606H445.903V22.6794H450.444C450.444 22.2625 450.361 21.8905 450.194 21.5634C450.03 21.2364 449.796 20.9782 449.492 20.789C449.19 20.5998 448.834 20.5052 448.424 20.5052C447.972 20.5052 447.58 20.6175 447.25 20.8419C446.923 21.0632 446.671 21.3518 446.495 21.7077C446.319 22.0637 446.23 22.4453 446.23 22.8525V23.5067C446.23 24.0647 446.327 24.5377 446.519 24.9257C446.715 25.3105 446.986 25.6039 447.332 25.8059C447.678 26.0047 448.081 26.1042 448.539 26.1042C448.838 26.1042 449.107 26.0625 449.347 25.9791C449.591 25.8925 449.801 25.7642 449.977 25.5943C450.154 25.4211 450.29 25.2063 450.386 24.9497L451.483 25.2576C451.368 25.6296 451.174 25.9566 450.901 26.2388C450.628 26.5178 450.292 26.7359 449.891 26.893C449.49 27.0469 449.04 27.1239 448.539 27.1239ZM459.529 26.97H456.489V17.1189H459.663C460.619 17.1189 461.437 17.3161 462.117 17.7106C462.796 18.1018 463.318 18.6646 463.68 19.3989C464.042 20.13 464.223 21.0055 464.223 22.0252C464.223 23.0514 464.041 23.9348 463.675 24.6756C463.309 25.4131 462.777 25.9807 462.078 26.3783C461.379 26.7728 460.529 26.97 459.529 26.97ZM457.682 25.9118H459.452C460.266 25.9118 460.941 25.7546 461.477 25.4404C462.012 25.1261 462.412 24.6788 462.675 24.0984C462.938 23.5179 463.069 22.8269 463.069 22.0252C463.069 21.2299 462.939 20.5453 462.679 19.9713C462.42 19.3941 462.032 18.9516 461.515 18.6437C460.999 18.3327 460.356 18.1771 459.586 18.1771H457.682V25.9118ZM468.768 27.1239C468.056 27.1239 467.442 26.9668 466.926 26.6525C466.413 26.335 466.017 25.8925 465.738 25.3249C465.462 24.7541 465.324 24.0903 465.324 23.3336C465.324 22.5768 465.462 21.9098 465.738 21.3326C466.017 20.7521 466.405 20.3 466.902 19.9761C467.402 19.649 467.986 19.4855 468.653 19.4855C469.038 19.4855 469.418 19.5496 469.793 19.6779C470.168 19.8062 470.509 20.0146 470.817 20.3032C471.125 20.5886 471.37 20.967 471.553 21.4384C471.736 21.9098 471.827 22.4902 471.827 23.1796V23.6606H466.132V22.6794H470.673C470.673 22.2625 470.59 21.8905 470.423 21.5634C470.259 21.2364 470.025 20.9782 469.721 20.789C469.419 20.5998 469.063 20.5052 468.653 20.5052C468.201 20.5052 467.809 20.6175 467.479 20.8419C467.152 21.0632 466.9 21.3518 466.724 21.7077C466.548 22.0637 466.459 22.4453 466.459 22.8525V23.5067C466.459 24.0647 466.556 24.5377 466.748 24.9257C466.944 25.3105 467.215 25.6039 467.561 25.8059C467.907 26.0047 468.31 26.1042 468.768 26.1042C469.066 26.1042 469.336 26.0625 469.576 25.9791C469.82 25.8925 470.03 25.7642 470.206 25.5943C470.383 25.4211 470.519 25.2063 470.615 24.9497L471.712 25.2576C471.596 25.6296 471.402 25.9566 471.13 26.2388C470.857 26.5178 470.521 26.7359 470.12 26.893C469.719 27.0469 469.268 27.1239 468.768 27.1239ZM478.971 19.5817L476.239 26.97H475.084L472.352 19.5817H473.583L475.623 25.4692H475.7L477.739 19.5817H478.971Z" fill="white"/>
<g opacity="0.8">
<rect y="43.125" width="466" height="43" fill="#FF6900"/>
<path d="M367.22 60.2439V70.095H366.027V60.2439H367.22ZM370.193 65.6505V70.095H369.058V62.7067H370.155V63.8611H370.251C370.424 63.4859 370.687 63.1845 371.04 62.9568C371.393 62.7259 371.848 62.6105 372.406 62.6105C372.906 62.6105 373.344 62.7131 373.719 62.9183C374.094 63.1204 374.386 63.4282 374.595 63.8419C374.803 64.2523 374.907 64.7718 374.907 65.4003V70.095H373.772V65.4773C373.772 64.8969 373.621 64.4447 373.32 64.1209C373.018 63.7938 372.605 63.6302 372.079 63.6302C371.717 63.6302 371.393 63.7088 371.107 63.8659C370.825 64.023 370.602 64.2523 370.439 64.5538C370.275 64.8552 370.193 65.2208 370.193 65.6505ZM380.814 65.3426V66.4008H376.505V65.3426H380.814ZM382.566 70.095V60.2439H383.759V64.6307H389.011V60.2439H390.204V70.095H389.011V65.6889H383.759V70.095H382.566ZM395.04 70.2489C394.373 70.2489 393.788 70.0902 393.284 69.7727C392.784 69.4552 392.393 69.0111 392.111 68.4403C391.832 67.8695 391.692 67.2025 391.692 66.4393C391.692 65.6697 391.832 64.9979 392.111 64.4239C392.393 63.8499 392.784 63.4042 393.284 63.0867C393.788 62.7692 394.373 62.6105 395.04 62.6105C395.707 62.6105 396.291 62.7692 396.791 63.0867C397.294 63.4042 397.685 63.8499 397.964 64.4239C398.247 64.9979 398.388 65.6697 398.388 66.4393C398.388 67.2025 398.247 67.8695 397.964 68.4403C397.685 69.0111 397.294 69.4552 396.791 69.7727C396.291 70.0902 395.707 70.2489 395.04 70.2489ZM395.04 69.2292C395.547 69.2292 395.963 69.0993 396.291 68.8395C396.618 68.5798 396.86 68.2383 397.017 67.815C397.174 67.3917 397.253 66.9331 397.253 66.4393C397.253 65.9455 397.174 65.4853 397.017 65.0588C396.86 64.6323 396.618 64.2876 396.291 64.0247C395.963 63.7617 395.547 63.6302 395.04 63.6302C394.533 63.6302 394.116 63.7617 393.789 64.0247C393.462 64.2876 393.22 64.6323 393.063 65.0588C392.906 65.4853 392.827 65.9455 392.827 66.4393C392.827 66.9331 392.906 67.3917 393.063 67.815C393.22 68.2383 393.462 68.5798 393.789 68.8395C394.116 69.0993 394.533 69.2292 395.04 69.2292ZM404.377 67.0742V62.7067H405.512V70.095H404.377V68.8444H404.3C404.127 69.2195 403.857 69.5386 403.492 69.8016C403.126 70.0613 402.664 70.1912 402.106 70.1912C401.645 70.1912 401.234 70.0902 400.875 69.8881C400.516 69.6829 400.234 69.3751 400.028 68.9646C399.823 68.5509 399.721 68.0298 399.721 67.4013V62.7067H400.856V67.3244C400.856 67.8631 401.006 68.2928 401.308 68.6135C401.613 68.9341 402.001 69.0945 402.472 69.0945C402.754 69.0945 403.041 69.0223 403.333 68.878C403.628 68.7337 403.875 68.5125 404.074 68.2142C404.276 67.916 404.377 67.536 404.377 67.0742ZM412.424 64.3614L411.405 64.65C411.341 64.48 411.246 64.3149 411.121 64.1545C410.999 63.991 410.832 63.8563 410.621 63.7505C410.409 63.6447 410.138 63.5917 409.808 63.5917C409.356 63.5917 408.979 63.696 408.677 63.9044C408.379 64.1096 408.23 64.371 408.23 64.6884C408.23 64.9706 408.333 65.1935 408.538 65.357C408.743 65.5206 409.064 65.6569 409.5 65.7659L410.597 66.0353C411.257 66.1956 411.749 66.4409 412.073 66.7712C412.397 67.0983 412.559 67.52 412.559 68.0363C412.559 68.4595 412.437 68.8379 412.194 69.1714C411.953 69.5049 411.616 69.7679 411.183 69.9603C410.751 70.1527 410.247 70.2489 409.673 70.2489C408.919 70.2489 408.296 70.0854 407.802 69.7583C407.308 69.4312 406.995 68.9534 406.864 68.3249L407.941 68.0555C408.044 68.4531 408.238 68.7514 408.523 68.9502C408.812 69.149 409.189 69.2484 409.654 69.2484C410.183 69.2484 410.603 69.1362 410.914 68.9117C411.228 68.684 411.385 68.4114 411.385 68.094C411.385 67.8374 411.296 67.6226 411.116 67.4494C410.936 67.2731 410.661 67.1416 410.289 67.055L409.057 66.7664C408.381 66.6061 407.884 66.3575 407.566 66.0208C407.252 65.6809 407.095 65.256 407.095 64.7462C407.095 64.3293 407.212 63.9605 407.446 63.6398C407.683 63.3192 408.006 63.0674 408.413 62.8847C408.823 62.7019 409.288 62.6105 409.808 62.6105C410.539 62.6105 411.113 62.7708 411.53 63.0915C411.95 63.4122 412.248 63.8355 412.424 64.3614ZM416.966 70.2489C416.254 70.2489 415.64 70.0918 415.123 69.7775C414.61 69.46 414.214 69.0175 413.935 68.4499C413.659 67.8791 413.522 67.2153 413.522 66.4586C413.522 65.7018 413.659 65.0348 413.935 64.4576C414.214 63.8771 414.602 63.425 415.099 63.1011C415.599 62.774 416.183 62.6105 416.85 62.6105C417.235 62.6105 417.615 62.6746 417.99 62.8029C418.365 62.9312 418.707 63.1396 419.015 63.4282C419.322 63.7136 419.568 64.092 419.751 64.5634C419.933 65.0348 420.025 65.6152 420.025 66.3046V66.7856H414.33V65.8044H418.87C418.87 65.3875 418.787 65.0155 418.62 64.6884C418.457 64.3614 418.223 64.1032 417.918 63.914C417.617 63.7248 417.261 63.6302 416.85 63.6302C416.398 63.6302 416.007 63.7425 415.676 63.9669C415.349 64.1882 415.098 64.4768 414.921 64.8327C414.745 65.1887 414.657 65.5703 414.657 65.9775V66.6317C414.657 67.1897 414.753 67.6627 414.945 68.0507C415.141 68.4355 415.412 68.7289 415.758 68.9309C416.105 69.1297 416.507 69.2292 416.966 69.2292C417.264 69.2292 417.533 69.1875 417.774 69.1041C418.017 69.0175 418.227 68.8892 418.404 68.7193C418.58 68.5461 418.716 68.3313 418.813 68.0747L419.909 68.3826C419.794 68.7546 419.6 69.0816 419.327 69.3638C419.055 69.6428 418.718 69.8609 418.317 70.018C417.916 70.1719 417.466 70.2489 416.966 70.2489ZM424.376 61.3021V60.2439H431.765V61.3021H428.667V70.095H427.474V61.3021H424.376ZM435.078 70.2489C434.366 70.2489 433.752 70.0918 433.236 69.7775C432.723 69.46 432.327 69.0175 432.048 68.4499C431.772 67.8791 431.634 67.2153 431.634 66.4586C431.634 65.7018 431.772 65.0348 432.048 64.4576C432.327 63.8771 432.715 63.425 433.212 63.1011C433.712 62.774 434.296 62.6105 434.963 62.6105C435.347 62.6105 435.727 62.6746 436.103 62.8029C436.478 62.9312 436.819 63.1396 437.127 63.4282C437.435 63.7136 437.68 64.092 437.863 64.5634C438.046 65.0348 438.137 65.6152 438.137 66.3046V66.7856H432.442V65.8044H436.983C436.983 65.3875 436.899 65.0155 436.733 64.6884C436.569 64.3614 436.335 64.1032 436.03 63.914C435.729 63.7248 435.373 63.6302 434.963 63.6302C434.51 63.6302 434.119 63.7425 433.789 63.9669C433.462 64.1882 433.21 64.4768 433.034 64.8327C432.857 65.1887 432.769 65.5703 432.769 65.9775V66.6317C432.769 67.1897 432.865 67.6627 433.058 68.0507C433.253 68.4355 433.524 68.7289 433.871 68.9309C434.217 69.1297 434.619 69.2292 435.078 69.2292C435.376 69.2292 435.646 69.1875 435.886 69.1041C436.13 69.0175 436.34 68.8892 436.516 68.7193C436.693 68.5461 436.829 68.3313 436.925 68.0747L438.022 68.3826C437.906 68.7546 437.712 69.0816 437.44 69.3638C437.167 69.6428 436.83 69.8609 436.43 70.018C436.029 70.1719 435.578 70.2489 435.078 70.2489ZM441.638 70.2681C441.17 70.2681 440.745 70.1799 440.364 70.0036C439.982 69.824 439.679 69.5659 439.454 69.2292C439.23 68.8892 439.118 68.4788 439.118 67.9978C439.118 67.5745 439.201 67.2314 439.368 66.9684C439.535 66.7023 439.757 66.4938 440.036 66.3431C440.315 66.1924 440.623 66.0802 440.96 66.0064C441.3 65.9294 441.641 65.8685 441.985 65.8236C442.433 65.7659 442.797 65.7226 443.076 65.6937C443.359 65.6617 443.564 65.6088 443.692 65.535C443.824 65.4613 443.889 65.333 443.889 65.1502V65.1117C443.889 64.6371 443.759 64.2684 443.5 64.0054C443.243 63.7425 442.854 63.611 442.331 63.611C441.789 63.611 441.364 63.7296 441.056 63.9669C440.748 64.2042 440.532 64.4576 440.407 64.7269L439.329 64.3421C439.522 63.8932 439.778 63.5436 440.099 63.2935C440.423 63.0402 440.776 62.8638 441.157 62.7644C441.542 62.6618 441.92 62.6105 442.292 62.6105C442.53 62.6105 442.802 62.6393 443.11 62.6971C443.421 62.7516 443.721 62.8654 444.01 63.0386C444.301 63.2117 444.543 63.4731 444.736 63.8226C444.928 64.1722 445.025 64.6403 445.025 65.2272V70.095H443.889V69.0945H443.832C443.755 69.2548 443.626 69.4264 443.447 69.6092C443.267 69.7919 443.028 69.9475 442.73 70.0757C442.432 70.204 442.068 70.2681 441.638 70.2681ZM441.811 69.2484C442.26 69.2484 442.639 69.1602 442.947 68.9838C443.258 68.8075 443.492 68.5798 443.649 68.3008C443.809 68.0218 443.889 67.7284 443.889 67.4206V66.3816C443.841 66.4393 443.735 66.4922 443.572 66.5403C443.412 66.5852 443.226 66.6253 443.014 66.6606C442.805 66.6926 442.602 66.7215 442.403 66.7472C442.207 66.7696 442.049 66.7888 441.927 66.8049C441.632 66.8434 441.356 66.9059 441.099 66.9925C440.846 67.0758 440.641 67.2025 440.484 67.3725C440.33 67.5392 440.253 67.7669 440.253 68.0555C440.253 68.4499 440.399 68.7481 440.691 68.9502C440.986 69.149 441.359 69.2484 441.811 69.2484ZM446.696 70.095V62.7067H447.793V63.8611H447.889C448.043 63.4667 448.292 63.1604 448.635 62.9424C448.978 62.7211 449.39 62.6105 449.871 62.6105C450.359 62.6105 450.764 62.7211 451.088 62.9424C451.415 63.1604 451.67 63.4667 451.853 63.8611H451.93C452.119 63.4795 452.403 63.1765 452.781 62.952C453.16 62.7243 453.613 62.6105 454.142 62.6105C454.803 62.6105 455.343 62.8173 455.763 63.231C456.184 63.6414 456.394 64.2812 456.394 65.1502V70.095H455.258V65.1502C455.258 64.6051 455.109 64.2155 454.811 63.9814C454.513 63.7473 454.162 63.6302 453.758 63.6302C453.238 63.6302 452.836 63.7874 452.55 64.1016C452.265 64.4127 452.122 64.8071 452.122 65.2849V70.095H450.968V65.0348C450.968 64.6147 450.832 64.2764 450.559 64.0198C450.286 63.7601 449.935 63.6302 449.506 63.6302C449.211 63.6302 448.935 63.7088 448.678 63.8659C448.425 64.023 448.22 64.2411 448.063 64.5201C447.909 64.7959 447.832 65.1149 447.832 65.4773V70.095H446.696Z" fill="white"/>
</g>
<g opacity="0.64">
<rect y="86.25" width="416" height="43" fill="#FF6900"/>
<path d="M335.043 113.22V103.369H338.371C339.141 103.369 339.772 103.5 340.266 103.763C340.76 104.023 341.126 104.381 341.363 104.836C341.6 105.291 341.719 105.809 341.719 106.39C341.719 106.97 341.6 107.485 341.363 107.934C341.126 108.383 340.762 108.735 340.271 108.992C339.78 109.245 339.154 109.372 338.39 109.372H335.697V108.294H338.352C338.878 108.294 339.301 108.217 339.622 108.064C339.946 107.91 340.18 107.692 340.324 107.409C340.471 107.124 340.545 106.784 340.545 106.39C340.545 105.995 340.471 105.651 340.324 105.355C340.176 105.06 339.941 104.833 339.617 104.672C339.293 104.509 338.865 104.427 338.333 104.427H336.235V113.22H335.043ZM339.679 108.795L342.104 113.22H340.718L338.333 108.795H339.679ZM346.171 113.374C345.459 113.374 344.845 113.217 344.329 112.903C343.816 112.585 343.42 112.143 343.141 111.575C342.865 111.004 342.727 110.34 342.727 109.584C342.727 108.827 342.865 108.16 343.141 107.583C343.42 107.002 343.808 106.55 344.305 106.226C344.805 105.899 345.389 105.735 346.056 105.735C346.44 105.735 346.82 105.8 347.196 105.928C347.571 106.056 347.912 106.265 348.22 106.553C348.528 106.839 348.773 107.217 348.956 107.688C349.139 108.16 349.23 108.74 349.23 109.43V109.911H343.535V108.929H348.076C348.076 108.513 347.992 108.141 347.826 107.813C347.662 107.486 347.428 107.228 347.123 107.039C346.822 106.85 346.466 106.755 346.056 106.755C345.603 106.755 345.212 106.867 344.882 107.092C344.555 107.313 344.303 107.602 344.127 107.958C343.95 108.314 343.862 108.695 343.862 109.103V109.757C343.862 110.315 343.958 110.788 344.151 111.176C344.346 111.56 344.617 111.854 344.964 112.056C345.31 112.255 345.712 112.354 346.171 112.354C346.469 112.354 346.739 112.312 346.979 112.229C347.223 112.143 347.433 112.014 347.609 111.844C347.786 111.671 347.922 111.456 348.018 111.2L349.115 111.508C348.999 111.88 348.805 112.207 348.533 112.489C348.26 112.768 347.924 112.986 347.523 113.143C347.122 113.297 346.671 113.374 346.171 113.374ZM353.559 113.374C352.866 113.374 352.269 113.21 351.769 112.883C351.269 112.556 350.884 112.106 350.615 111.532C350.345 110.958 350.211 110.302 350.211 109.564C350.211 108.814 350.349 108.152 350.624 107.578C350.903 107.001 351.291 106.55 351.788 106.226C352.289 105.899 352.872 105.735 353.539 105.735C354.059 105.735 354.527 105.832 354.944 106.024C355.361 106.216 355.702 106.486 355.968 106.832C356.235 107.179 356.4 107.583 356.464 108.044H355.329C355.242 107.708 355.05 107.409 354.751 107.15C354.456 106.887 354.059 106.755 353.559 106.755C353.116 106.755 352.728 106.871 352.395 107.102C352.064 107.329 351.806 107.652 351.62 108.068C351.437 108.482 351.346 108.968 351.346 109.526C351.346 110.097 351.436 110.594 351.615 111.017C351.798 111.44 352.055 111.769 352.385 112.003C352.718 112.237 353.11 112.354 353.559 112.354C353.854 112.354 354.121 112.303 354.362 112.2C354.602 112.098 354.806 111.95 354.973 111.758C355.14 111.565 355.258 111.334 355.329 111.065H356.464C356.4 111.501 356.241 111.894 355.988 112.244C355.738 112.59 355.406 112.866 354.992 113.071C354.582 113.273 354.104 113.374 353.559 113.374ZM357.723 113.22V105.832H358.82V106.948H358.897C359.032 106.582 359.275 106.285 359.628 106.058C359.981 105.83 360.378 105.716 360.821 105.716C360.904 105.716 361.009 105.718 361.134 105.721C361.259 105.724 361.353 105.729 361.417 105.735V106.89C361.379 106.88 361.291 106.866 361.153 106.847C361.018 106.824 360.876 106.813 360.725 106.813C360.366 106.813 360.045 106.888 359.763 107.039C359.484 107.187 359.263 107.392 359.099 107.655C358.939 107.914 358.859 108.211 358.859 108.545V113.22H357.723ZM367.019 110.199V105.832H368.154V113.22H367.019V111.969H366.942C366.769 112.345 366.5 112.664 366.134 112.927C365.769 113.186 365.307 113.316 364.749 113.316C364.287 113.316 363.877 113.215 363.518 113.013C363.158 112.808 362.876 112.5 362.671 112.09C362.466 111.676 362.363 111.155 362.363 110.526V105.832H363.498V110.449C363.498 110.988 363.649 111.418 363.95 111.738C364.255 112.059 364.643 112.219 365.114 112.219C365.397 112.219 365.684 112.147 365.975 112.003C366.27 111.859 366.517 111.637 366.716 111.339C366.918 111.041 367.019 110.661 367.019 110.199ZM369.834 113.22V105.832H370.969V113.22H369.834ZM370.411 104.6C370.19 104.6 369.999 104.525 369.838 104.374C369.681 104.224 369.603 104.042 369.603 103.831C369.603 103.619 369.681 103.438 369.838 103.287C369.999 103.136 370.19 103.061 370.411 103.061C370.632 103.061 370.821 103.136 370.978 103.287C371.139 103.438 371.219 103.619 371.219 103.831C371.219 104.042 371.139 104.224 370.978 104.374C370.821 104.525 370.632 104.6 370.411 104.6ZM375.861 105.832V106.794H372.032V105.832H375.861ZM373.148 104.062H374.283V111.104C374.283 111.424 374.33 111.665 374.423 111.825C374.519 111.982 374.641 112.088 374.788 112.143C374.939 112.194 375.098 112.219 375.265 112.219C375.39 112.219 375.492 112.213 375.572 112.2C375.653 112.184 375.717 112.171 375.765 112.162L375.996 113.181C375.919 113.21 375.811 113.239 375.673 113.268C375.536 113.3 375.361 113.316 375.149 113.316C374.828 113.316 374.514 113.247 374.206 113.109C373.902 112.971 373.648 112.761 373.446 112.479C373.248 112.197 373.148 111.841 373.148 111.411V104.062ZM377.169 113.22V105.832H378.265V106.986H378.362C378.515 106.592 378.764 106.285 379.107 106.067C379.45 105.846 379.862 105.735 380.343 105.735C380.831 105.735 381.236 105.846 381.56 106.067C381.887 106.285 382.142 106.592 382.325 106.986H382.402C382.591 106.605 382.875 106.301 383.253 106.077C383.632 105.849 384.086 105.735 384.615 105.735C385.275 105.735 385.816 105.942 386.236 106.356C386.656 106.766 386.866 107.406 386.866 108.275V113.22H385.731V108.275C385.731 107.73 385.581 107.34 385.283 107.106C384.985 106.872 384.634 106.755 384.23 106.755C383.71 106.755 383.308 106.912 383.023 107.227C382.737 107.538 382.594 107.932 382.594 108.41V113.22H381.44V108.16C381.44 107.74 381.304 107.401 381.031 107.145C380.759 106.885 380.407 106.755 379.978 106.755C379.683 106.755 379.407 106.834 379.15 106.991C378.897 107.148 378.692 107.366 378.535 107.645C378.381 107.921 378.304 108.24 378.304 108.602V113.22H377.169ZM391.639 113.374C390.927 113.374 390.313 113.217 389.797 112.903C389.284 112.585 388.888 112.143 388.609 111.575C388.333 111.004 388.195 110.34 388.195 109.584C388.195 108.827 388.333 108.16 388.609 107.583C388.888 107.002 389.276 106.55 389.773 106.226C390.273 105.899 390.857 105.735 391.524 105.735C391.908 105.735 392.288 105.8 392.664 105.928C393.039 106.056 393.38 106.265 393.688 106.553C393.996 106.839 394.241 107.217 394.424 107.688C394.607 108.16 394.698 108.74 394.698 109.43V109.911H389.003V108.929H393.544C393.544 108.513 393.46 108.141 393.294 107.813C393.13 107.486 392.896 107.228 392.591 107.039C392.29 106.85 391.934 106.755 391.524 106.755C391.071 106.755 390.68 106.867 390.35 107.092C390.023 107.313 389.771 107.602 389.595 107.958C389.418 108.314 389.33 108.695 389.33 109.103V109.757C389.33 110.315 389.426 110.788 389.619 111.176C389.814 111.56 390.085 111.854 390.432 112.056C390.778 112.255 391.18 112.354 391.639 112.354C391.937 112.354 392.207 112.312 392.447 112.229C392.691 112.143 392.901 112.014 393.077 111.844C393.254 111.671 393.39 111.456 393.486 111.2L394.583 111.508C394.467 111.88 394.273 112.207 394.001 112.489C393.728 112.768 393.391 112.986 392.991 113.143C392.59 113.297 392.139 113.374 391.639 113.374ZM397.16 108.775V113.22H396.025V105.832H397.122V106.986H397.218C397.391 106.611 397.654 106.309 398.007 106.082C398.36 105.851 398.815 105.735 399.373 105.735C399.873 105.735 400.311 105.838 400.686 106.043C401.061 106.245 401.353 106.553 401.561 106.967C401.77 107.377 401.874 107.897 401.874 108.525V113.22H400.739V108.602C400.739 108.022 400.588 107.57 400.287 107.246C399.985 106.919 399.572 106.755 399.046 106.755C398.683 106.755 398.36 106.834 398.074 106.991C397.792 107.148 397.569 107.377 397.406 107.679C397.242 107.98 397.16 108.346 397.16 108.775ZM406.762 105.832V106.794H402.933V105.832H406.762ZM404.049 104.062H405.184V111.104C405.184 111.424 405.23 111.665 405.323 111.825C405.42 111.982 405.541 112.088 405.689 112.143C405.84 112.194 405.998 112.219 406.165 112.219C406.29 112.219 406.393 112.213 406.473 112.2C406.553 112.184 406.617 112.171 406.665 112.162L406.896 113.181C406.819 113.21 406.712 113.239 406.574 113.268C406.436 113.3 406.261 113.316 406.05 113.316C405.729 113.316 405.415 113.247 405.107 113.109C404.802 112.971 404.549 112.761 404.347 112.479C404.148 112.197 404.049 111.841 404.049 111.411V104.062Z" fill="white"/>
</g>
<g opacity="0.56">
<rect y="129.375" width="264" height="43" fill="#FF6900"/>
<path d="M176.229 146.494V156.345H175.036V146.494H176.229ZM179.202 151.9V156.345H178.067V148.957H179.163V150.111H179.26C179.433 149.736 179.696 149.434 180.049 149.207C180.401 148.976 180.857 148.86 181.415 148.86C181.915 148.86 182.353 148.963 182.728 149.168C183.103 149.37 183.395 149.678 183.603 150.092C183.812 150.502 183.916 151.022 183.916 151.65V156.345H182.781V151.727C182.781 151.147 182.63 150.695 182.329 150.371C182.027 150.044 181.613 149.88 181.088 149.88C180.725 149.88 180.401 149.959 180.116 150.116C179.834 150.273 179.611 150.502 179.447 150.804C179.284 151.105 179.202 151.471 179.202 151.9ZM188.88 148.957V149.919H184.898V148.957H188.88ZM186.09 156.345V147.937C186.09 147.514 186.19 147.161 186.389 146.879C186.587 146.597 186.846 146.385 187.163 146.244C187.481 146.103 187.816 146.032 188.168 146.032C188.447 146.032 188.675 146.055 188.851 146.1C189.028 146.144 189.159 146.186 189.246 146.225L188.919 147.206C188.861 147.187 188.781 147.163 188.678 147.134C188.579 147.105 188.447 147.09 188.284 147.09C187.909 147.09 187.638 147.185 187.471 147.374C187.307 147.563 187.226 147.841 187.226 148.206V156.345H186.09ZM190.071 156.345V148.957H191.168V150.073H191.245C191.38 149.707 191.623 149.41 191.976 149.183C192.329 148.955 192.726 148.841 193.169 148.841C193.252 148.841 193.357 148.843 193.482 148.846C193.607 148.849 193.701 148.854 193.765 148.86V150.015C193.727 150.005 193.639 149.991 193.501 149.972C193.366 149.949 193.223 149.938 193.073 149.938C192.714 149.938 192.393 150.013 192.111 150.164C191.832 150.312 191.61 150.517 191.447 150.78C191.287 151.039 191.206 151.336 191.206 151.67V156.345H190.071ZM196.885 156.518C196.417 156.518 195.992 156.43 195.61 156.254C195.229 156.074 194.926 155.816 194.701 155.479C194.477 155.139 194.365 154.729 194.365 154.248C194.365 153.824 194.448 153.481 194.615 153.218C194.782 152.952 195.004 152.744 195.283 152.593C195.562 152.442 195.87 152.33 196.207 152.256C196.547 152.179 196.888 152.119 197.231 152.074C197.68 152.016 198.044 151.973 198.323 151.944C198.606 151.912 198.811 151.859 198.939 151.785C199.071 151.711 199.136 151.583 199.136 151.4V151.362C199.136 150.887 199.006 150.518 198.747 150.255C198.49 149.992 198.1 149.861 197.578 149.861C197.036 149.861 196.611 149.98 196.303 150.217C195.995 150.454 195.779 150.708 195.654 150.977L194.576 150.592C194.769 150.143 195.025 149.794 195.346 149.544C195.67 149.29 196.023 149.114 196.404 149.014C196.789 148.912 197.167 148.86 197.539 148.86C197.777 148.86 198.049 148.889 198.357 148.947C198.668 149.002 198.968 149.115 199.257 149.289C199.548 149.462 199.79 149.723 199.983 150.073C200.175 150.422 200.271 150.89 200.271 151.477V156.345H199.136V155.344H199.079C199.002 155.505 198.873 155.676 198.694 155.859C198.514 156.042 198.275 156.197 197.977 156.326C197.679 156.454 197.315 156.518 196.885 156.518ZM197.058 155.498C197.507 155.498 197.886 155.41 198.193 155.234C198.505 155.057 198.739 154.83 198.896 154.551C199.056 154.272 199.136 153.978 199.136 153.671V152.632C199.088 152.689 198.982 152.742 198.819 152.79C198.658 152.835 198.472 152.875 198.261 152.911C198.052 152.943 197.849 152.972 197.65 152.997C197.454 153.02 197.296 153.039 197.174 153.055C196.879 153.093 196.603 153.156 196.346 153.242C196.093 153.326 195.888 153.453 195.731 153.622C195.577 153.789 195.5 154.017 195.5 154.305C195.5 154.7 195.646 154.998 195.938 155.2C196.233 155.399 196.606 155.498 197.058 155.498ZM207.177 150.611L206.157 150.9C206.093 150.73 205.998 150.565 205.873 150.405C205.751 150.241 205.585 150.106 205.373 150C205.161 149.895 204.89 149.842 204.56 149.842C204.108 149.842 203.731 149.946 203.43 150.154C203.131 150.36 202.982 150.621 202.982 150.938C202.982 151.221 203.085 151.444 203.29 151.607C203.495 151.771 203.816 151.907 204.252 152.016L205.349 152.285C206.009 152.446 206.502 152.691 206.826 153.021C207.149 153.348 207.311 153.77 207.311 154.286C207.311 154.71 207.19 155.088 206.946 155.421C206.705 155.755 206.369 156.018 205.936 156.21C205.503 156.403 204.999 156.499 204.425 156.499C203.672 156.499 203.048 156.335 202.554 156.008C202.06 155.681 201.748 155.203 201.616 154.575L202.694 154.305C202.796 154.703 202.99 155.001 203.276 155.2C203.564 155.399 203.941 155.498 204.406 155.498C204.935 155.498 205.355 155.386 205.666 155.162C205.981 154.934 206.138 154.661 206.138 154.344C206.138 154.087 206.048 153.873 205.868 153.699C205.689 153.523 205.413 153.392 205.041 153.305L203.81 153.016C203.133 152.856 202.636 152.608 202.319 152.271C202.004 151.931 201.847 151.506 201.847 150.996C201.847 150.579 201.964 150.211 202.198 149.89C202.436 149.569 202.758 149.317 203.165 149.135C203.576 148.952 204.041 148.86 204.56 148.86C205.291 148.86 205.865 149.021 206.282 149.341C206.702 149.662 207 150.085 207.177 150.611ZM211.833 148.957V149.919H208.005V148.957H211.833ZM209.12 147.187H210.256V154.229C210.256 154.549 210.302 154.79 210.395 154.95C210.491 155.107 210.613 155.213 210.761 155.268C210.911 155.319 211.07 155.344 211.237 155.344C211.362 155.344 211.465 155.338 211.545 155.325C211.625 155.309 211.689 155.296 211.737 155.287L211.968 156.306C211.891 156.335 211.784 156.364 211.646 156.393C211.508 156.425 211.333 156.441 211.121 156.441C210.801 156.441 210.487 156.372 210.179 156.234C209.874 156.096 209.621 155.886 209.419 155.604C209.22 155.322 209.12 154.966 209.12 154.536V147.187ZM213.141 156.345V148.957H214.238V150.073H214.315C214.449 149.707 214.693 149.41 215.046 149.183C215.398 148.955 215.796 148.841 216.239 148.841C216.322 148.841 216.426 148.843 216.551 148.846C216.676 148.849 216.771 148.854 216.835 148.86V150.015C216.797 150.005 216.708 149.991 216.57 149.972C216.436 149.949 216.293 149.938 216.142 149.938C215.783 149.938 215.463 150.013 215.18 150.164C214.901 150.312 214.68 150.517 214.517 150.78C214.356 151.039 214.276 151.336 214.276 151.67V156.345H213.141ZM219.955 156.518C219.487 156.518 219.062 156.43 218.68 156.254C218.299 156.074 217.996 155.816 217.771 155.479C217.547 155.139 217.434 154.729 217.434 154.248C217.434 153.824 217.518 153.481 217.684 153.218C217.851 152.952 218.074 152.744 218.353 152.593C218.632 152.442 218.94 152.33 219.277 152.256C219.617 152.179 219.958 152.119 220.301 152.074C220.75 152.016 221.114 151.973 221.393 151.944C221.675 151.912 221.88 151.859 222.009 151.785C222.14 151.711 222.206 151.583 222.206 151.4V151.362C222.206 150.887 222.076 150.518 221.816 150.255C221.56 149.992 221.17 149.861 220.647 149.861C220.106 149.861 219.681 149.98 219.373 150.217C219.065 150.454 218.849 150.708 218.723 150.977L217.646 150.592C217.838 150.143 218.095 149.794 218.416 149.544C218.739 149.29 219.092 149.114 219.474 149.014C219.859 148.912 220.237 148.86 220.609 148.86C220.846 148.86 221.119 148.889 221.427 148.947C221.738 149.002 222.038 149.115 222.326 149.289C222.618 149.462 222.86 149.723 223.053 150.073C223.245 150.422 223.341 150.89 223.341 151.477V156.345H222.206V155.344H222.148C222.071 155.505 221.943 155.676 221.763 155.859C221.584 156.042 221.345 156.197 221.047 156.326C220.748 156.454 220.385 156.518 219.955 156.518ZM220.128 155.498C220.577 155.498 220.955 155.41 221.263 155.234C221.574 155.057 221.808 154.83 221.965 154.551C222.126 154.272 222.206 153.978 222.206 153.671V152.632C222.158 152.689 222.052 152.742 221.888 152.79C221.728 152.835 221.542 152.875 221.331 152.911C221.122 152.943 220.918 152.972 220.72 152.997C220.524 153.02 220.365 153.039 220.243 153.055C219.948 153.093 219.673 153.156 219.416 153.242C219.163 153.326 218.958 153.453 218.8 153.622C218.646 153.789 218.57 154.017 218.57 154.305C218.57 154.7 218.715 154.998 219.007 155.2C219.302 155.399 219.676 155.498 220.128 155.498ZM228.015 156.499C227.322 156.499 226.725 156.335 226.225 156.008C225.725 155.681 225.34 155.231 225.071 154.657C224.801 154.083 224.667 153.427 224.667 152.689C224.667 151.939 224.805 151.277 225.08 150.703C225.359 150.126 225.747 149.675 226.244 149.351C226.745 149.024 227.328 148.86 227.995 148.86C228.515 148.86 228.983 148.957 229.4 149.149C229.817 149.341 230.158 149.611 230.424 149.957C230.691 150.304 230.856 150.708 230.92 151.169H229.785C229.698 150.833 229.506 150.534 229.207 150.275C228.912 150.012 228.515 149.88 228.015 149.88C227.572 149.88 227.184 149.996 226.851 150.227C226.52 150.454 226.262 150.777 226.076 151.193C225.893 151.607 225.802 152.093 225.802 152.651C225.802 153.222 225.892 153.719 226.071 154.142C226.254 154.565 226.511 154.894 226.841 155.128C227.174 155.362 227.566 155.479 228.015 155.479C228.31 155.479 228.577 155.428 228.818 155.325C229.058 155.223 229.262 155.075 229.429 154.883C229.595 154.69 229.714 154.459 229.785 154.19H230.92C230.856 154.626 230.697 155.019 230.444 155.369C230.194 155.715 229.862 155.991 229.448 156.196C229.037 156.398 228.56 156.499 228.015 156.499ZM235.392 148.957V149.919H231.564V148.957H235.392ZM232.68 147.187H233.815V154.229C233.815 154.549 233.861 154.79 233.954 154.95C234.05 155.107 234.172 155.213 234.32 155.268C234.471 155.319 234.629 155.344 234.796 155.344C234.921 155.344 235.024 155.338 235.104 155.325C235.184 155.309 235.248 155.296 235.296 155.287L235.527 156.306C235.45 156.335 235.343 156.364 235.205 156.393C235.067 156.425 234.892 156.441 234.681 156.441C234.36 156.441 234.046 156.372 233.738 156.234C233.433 156.096 233.18 155.886 232.978 155.604C232.779 155.322 232.68 154.966 232.68 154.536V147.187ZM241.356 153.324V148.957H242.491V156.345H241.356V155.094H241.279C241.106 155.47 240.837 155.789 240.471 156.052C240.106 156.311 239.644 156.441 239.086 156.441C238.624 156.441 238.214 156.34 237.854 156.138C237.495 155.933 237.213 155.625 237.008 155.215C236.803 154.801 236.7 154.28 236.7 153.651V148.957H237.835V153.574C237.835 154.113 237.986 154.543 238.287 154.863C238.592 155.184 238.98 155.344 239.451 155.344C239.734 155.344 240.021 155.272 240.312 155.128C240.607 154.984 240.854 154.762 241.053 154.464C241.255 154.166 241.356 153.786 241.356 153.324ZM244.171 156.345V148.957H245.267V150.073H245.344C245.479 149.707 245.723 149.41 246.075 149.183C246.428 148.955 246.826 148.841 247.268 148.841C247.352 148.841 247.456 148.843 247.581 148.846C247.706 148.849 247.801 148.854 247.865 148.86V150.015C247.826 150.005 247.738 149.991 247.6 149.972C247.465 149.949 247.323 149.938 247.172 149.938C246.813 149.938 246.492 150.013 246.21 150.164C245.931 150.312 245.71 150.517 245.546 150.78C245.386 151.039 245.306 151.336 245.306 151.67V156.345H244.171ZM251.683 156.499C250.971 156.499 250.357 156.342 249.841 156.028C249.328 155.71 248.932 155.268 248.653 154.7C248.377 154.129 248.239 153.465 248.239 152.709C248.239 151.952 248.377 151.285 248.653 150.708C248.932 150.127 249.32 149.675 249.817 149.351C250.317 149.024 250.901 148.86 251.568 148.86C251.952 148.86 252.332 148.925 252.708 149.053C253.083 149.181 253.424 149.39 253.732 149.678C254.04 149.964 254.285 150.342 254.468 150.813C254.651 151.285 254.742 151.865 254.742 152.555V153.036H249.047V152.054H253.588C253.588 151.638 253.505 151.266 253.338 150.938C253.174 150.611 252.94 150.353 252.635 150.164C252.334 149.975 251.978 149.88 251.568 149.88C251.115 149.88 250.724 149.992 250.394 150.217C250.067 150.438 249.815 150.727 249.639 151.083C249.462 151.439 249.374 151.82 249.374 152.228V152.882C249.374 153.44 249.47 153.913 249.663 154.301C249.858 154.685 250.129 154.979 250.476 155.181C250.822 155.38 251.225 155.479 251.683 155.479C251.981 155.479 252.251 155.437 252.491 155.354C252.735 155.268 252.945 155.139 253.121 154.969C253.298 154.796 253.434 154.581 253.53 154.325L254.627 154.633C254.511 155.005 254.317 155.332 254.045 155.614C253.772 155.893 253.436 156.111 253.035 156.268C252.634 156.422 252.183 156.499 251.683 156.499Z" fill="white"/>
</g>
<g opacity="0.48">
<rect y="172.5" width="205" height="43" fill="#FF6900"/>
<path d="M117.346 189.619H118.77L122.118 197.796H122.233L125.581 189.619H127.005V199.47H125.889V191.985H125.793L122.714 199.47H121.637L118.558 191.985H118.462V199.47H117.346V189.619ZM131.017 199.643C130.549 199.643 130.124 199.555 129.742 199.379C129.361 199.199 129.057 198.941 128.833 198.604C128.609 198.264 128.496 197.854 128.496 197.373C128.496 196.949 128.58 196.606 128.746 196.343C128.913 196.077 129.136 195.869 129.415 195.718C129.694 195.567 130.002 195.455 130.339 195.381C130.678 195.304 131.02 195.244 131.363 195.199C131.812 195.141 132.176 195.098 132.455 195.069C132.737 195.037 132.942 194.984 133.071 194.91C133.202 194.836 133.268 194.708 133.268 194.525V194.487C133.268 194.012 133.138 193.643 132.878 193.38C132.622 193.117 132.232 192.986 131.709 192.986C131.168 192.986 130.743 193.105 130.435 193.342C130.127 193.579 129.91 193.833 129.785 194.102L128.708 193.717C128.9 193.268 129.157 192.919 129.478 192.669C129.801 192.415 130.154 192.239 130.536 192.139C130.921 192.037 131.299 191.985 131.671 191.985C131.908 191.985 132.181 192.014 132.489 192.072C132.8 192.127 133.1 192.24 133.388 192.414C133.68 192.587 133.922 192.848 134.114 193.198C134.307 193.547 134.403 194.015 134.403 194.602V199.47H133.268V198.469H133.21C133.133 198.63 133.005 198.801 132.825 198.984C132.646 199.167 132.407 199.322 132.109 199.451C131.81 199.579 131.446 199.643 131.017 199.643ZM131.19 198.623C131.639 198.623 132.017 198.535 132.325 198.359C132.636 198.182 132.87 197.955 133.027 197.676C133.188 197.397 133.268 197.103 133.268 196.796V195.757C133.22 195.814 133.114 195.867 132.95 195.915C132.79 195.96 132.604 196 132.392 196.036C132.184 196.068 131.98 196.097 131.782 196.122C131.586 196.145 131.427 196.164 131.305 196.18C131.01 196.218 130.735 196.281 130.478 196.367C130.225 196.451 130.02 196.578 129.862 196.747C129.708 196.914 129.631 197.142 129.631 197.43C129.631 197.825 129.777 198.123 130.069 198.325C130.364 198.524 130.738 198.623 131.19 198.623ZM137.21 195.025V199.47H136.075V192.082H137.172V193.236H137.268C137.441 192.861 137.704 192.559 138.057 192.332C138.41 192.101 138.865 191.985 139.423 191.985C139.923 191.985 140.361 192.088 140.736 192.293C141.111 192.495 141.403 192.803 141.611 193.217C141.82 193.627 141.924 194.147 141.924 194.775V199.47H140.789V194.852C140.789 194.272 140.638 193.82 140.337 193.496C140.035 193.169 139.622 193.005 139.096 193.005C138.733 193.005 138.41 193.084 138.124 193.241C137.842 193.398 137.619 193.627 137.456 193.929C137.292 194.23 137.21 194.596 137.21 195.025ZM145.773 199.643C145.304 199.643 144.88 199.555 144.498 199.379C144.116 199.199 143.813 198.941 143.589 198.604C143.364 198.264 143.252 197.854 143.252 197.373C143.252 196.949 143.335 196.606 143.502 196.343C143.669 196.077 143.892 195.869 144.171 195.718C144.45 195.567 144.758 195.455 145.094 195.381C145.434 195.304 145.776 195.244 146.119 195.199C146.568 195.141 146.932 195.098 147.211 195.069C147.493 195.037 147.698 194.984 147.826 194.91C147.958 194.836 148.024 194.708 148.024 194.525V194.487C148.024 194.012 147.894 193.643 147.634 193.38C147.378 193.117 146.988 192.986 146.465 192.986C145.923 192.986 145.498 193.105 145.191 193.342C144.883 193.579 144.666 193.833 144.541 194.102L143.464 193.717C143.656 193.268 143.913 192.919 144.233 192.669C144.557 192.415 144.91 192.239 145.292 192.139C145.676 192.037 146.055 191.985 146.427 191.985C146.664 191.985 146.937 192.014 147.244 192.072C147.556 192.127 147.855 192.24 148.144 192.414C148.436 192.587 148.678 192.848 148.87 193.198C149.063 193.547 149.159 194.015 149.159 194.602V199.47H148.024V198.469H147.966C147.889 198.63 147.761 198.801 147.581 198.984C147.402 199.167 147.163 199.322 146.864 199.451C146.566 199.579 146.202 199.643 145.773 199.643ZM145.946 198.623C146.395 198.623 146.773 198.535 147.081 198.359C147.392 198.182 147.626 197.955 147.783 197.676C147.944 197.397 148.024 197.103 148.024 196.796V195.757C147.976 195.814 147.87 195.867 147.706 195.915C147.546 195.96 147.36 196 147.148 196.036C146.94 196.068 146.736 196.097 146.537 196.122C146.342 196.145 146.183 196.164 146.061 196.18C145.766 196.218 145.49 196.281 145.234 196.367C144.981 196.451 144.775 196.578 144.618 196.747C144.464 196.914 144.387 197.142 144.387 197.43C144.387 197.825 144.533 198.123 144.825 198.325C145.12 198.524 145.494 198.623 145.946 198.623ZM153.813 202.394C153.265 202.394 152.793 202.324 152.399 202.183C152.004 202.045 151.676 201.862 151.413 201.635C151.153 201.41 150.946 201.17 150.792 200.913L151.697 200.278C151.799 200.413 151.929 200.567 152.086 200.74C152.243 200.916 152.458 201.069 152.731 201.197C153.007 201.328 153.367 201.394 153.813 201.394C154.41 201.394 154.902 201.25 155.29 200.961C155.678 200.672 155.872 200.22 155.872 199.605V198.104H155.776C155.692 198.239 155.574 198.405 155.42 198.604C155.269 198.8 155.051 198.975 154.765 199.128C154.483 199.279 154.102 199.355 153.621 199.355C153.024 199.355 152.489 199.213 152.014 198.931C151.543 198.649 151.169 198.239 150.893 197.7C150.621 197.161 150.484 196.507 150.484 195.737C150.484 194.981 150.618 194.322 150.884 193.76C151.15 193.196 151.52 192.76 151.995 192.452C152.469 192.141 153.018 191.985 153.64 191.985C154.121 191.985 154.503 192.066 154.785 192.226C155.07 192.383 155.288 192.563 155.439 192.765C155.593 192.964 155.711 193.127 155.795 193.255H155.91V192.082H157.007V199.682C157.007 200.317 156.863 200.833 156.574 201.23C156.289 201.631 155.904 201.925 155.42 202.111C154.939 202.3 154.403 202.394 153.813 202.394ZM153.775 198.335C154.23 198.335 154.615 198.231 154.929 198.022C155.243 197.814 155.482 197.514 155.646 197.123C155.809 196.731 155.891 196.263 155.891 195.718C155.891 195.186 155.811 194.716 155.651 194.309C155.49 193.902 155.253 193.582 154.939 193.352C154.624 193.121 154.236 193.005 153.775 193.005C153.294 193.005 152.893 193.127 152.572 193.371C152.255 193.615 152.016 193.942 151.855 194.352C151.698 194.763 151.62 195.218 151.62 195.718C151.62 196.231 151.7 196.685 151.86 197.079C152.024 197.471 152.264 197.778 152.582 198.003C152.902 198.224 153.3 198.335 153.775 198.335ZM161.783 199.624C161.071 199.624 160.457 199.467 159.94 199.153C159.427 198.835 159.031 198.393 158.752 197.825C158.476 197.254 158.339 196.59 158.339 195.834C158.339 195.077 158.476 194.41 158.752 193.833C159.031 193.252 159.419 192.8 159.916 192.476C160.417 192.149 161 191.985 161.667 191.985C162.052 191.985 162.432 192.05 162.807 192.178C163.182 192.306 163.524 192.515 163.832 192.803C164.14 193.089 164.385 193.467 164.568 193.938C164.75 194.41 164.842 194.99 164.842 195.68V196.161H159.147V195.179H163.687C163.687 194.763 163.604 194.391 163.437 194.063C163.274 193.736 163.04 193.478 162.735 193.289C162.434 193.1 162.078 193.005 161.667 193.005C161.215 193.005 160.824 193.117 160.494 193.342C160.166 193.563 159.915 193.852 159.738 194.208C159.562 194.564 159.474 194.945 159.474 195.353V196.007C159.474 196.565 159.57 197.038 159.762 197.426C159.958 197.81 160.229 198.104 160.575 198.306C160.922 198.505 161.324 198.604 161.783 198.604C162.081 198.604 162.35 198.562 162.591 198.479C162.834 198.393 163.044 198.264 163.221 198.094C163.397 197.921 163.533 197.706 163.63 197.45L164.726 197.758C164.611 198.13 164.417 198.457 164.144 198.739C163.872 199.018 163.535 199.236 163.134 199.393C162.733 199.547 162.283 199.624 161.783 199.624ZM166.169 199.47V192.082H167.265V193.236H167.362C167.515 192.842 167.764 192.535 168.107 192.317C168.45 192.096 168.862 191.985 169.343 191.985C169.831 191.985 170.236 192.096 170.56 192.317C170.887 192.535 171.142 192.842 171.325 193.236H171.402C171.591 192.855 171.875 192.551 172.253 192.327C172.632 192.099 173.086 191.985 173.615 191.985C174.275 191.985 174.816 192.192 175.236 192.606C175.656 193.016 175.866 193.656 175.866 194.525V199.47H174.731V194.525C174.731 193.98 174.581 193.59 174.283 193.356C173.985 193.122 173.634 193.005 173.23 193.005C172.71 193.005 172.308 193.162 172.022 193.477C171.737 193.788 171.594 194.182 171.594 194.66V199.47H170.44V194.41C170.44 193.99 170.304 193.651 170.031 193.395C169.759 193.135 169.407 193.005 168.978 193.005C168.683 193.005 168.407 193.084 168.15 193.241C167.897 193.398 167.692 193.616 167.535 193.895C167.381 194.171 167.304 194.49 167.304 194.852V199.47H166.169ZM180.639 199.624C179.927 199.624 179.313 199.467 178.797 199.153C178.284 198.835 177.888 198.393 177.609 197.825C177.333 197.254 177.195 196.59 177.195 195.834C177.195 195.077 177.333 194.41 177.609 193.833C177.888 193.252 178.276 192.8 178.773 192.476C179.273 192.149 179.857 191.985 180.524 191.985C180.908 191.985 181.288 192.05 181.664 192.178C182.039 192.306 182.38 192.515 182.688 192.803C182.996 193.089 183.241 193.467 183.424 193.938C183.607 194.41 183.698 194.99 183.698 195.68V196.161H178.003V195.179H182.544C182.544 194.763 182.46 194.391 182.294 194.063C182.13 193.736 181.896 193.478 181.591 193.289C181.29 193.1 180.934 193.005 180.524 193.005C180.071 193.005 179.68 193.117 179.35 193.342C179.023 193.563 178.771 193.852 178.595 194.208C178.418 194.564 178.33 194.945 178.33 195.353V196.007C178.33 196.565 178.426 197.038 178.619 197.426C178.814 197.81 179.085 198.104 179.432 198.306C179.778 198.505 180.18 198.604 180.639 198.604C180.937 198.604 181.207 198.562 181.447 198.479C181.691 198.393 181.901 198.264 182.077 198.094C182.254 197.921 182.39 197.706 182.486 197.45L183.583 197.758C183.467 198.13 183.273 198.457 183.001 198.739C182.728 199.018 182.391 199.236 181.991 199.393C181.59 199.547 181.139 199.624 180.639 199.624ZM186.16 195.025V199.47H185.025V192.082H186.122V193.236H186.218C186.391 192.861 186.654 192.559 187.007 192.332C187.36 192.101 187.815 191.985 188.373 191.985C188.873 191.985 189.311 192.088 189.686 192.293C190.061 192.495 190.353 192.803 190.561 193.217C190.77 193.627 190.874 194.147 190.874 194.775V199.47H189.739V194.852C189.739 194.272 189.588 193.82 189.287 193.496C188.985 193.169 188.572 193.005 188.046 193.005C187.683 193.005 187.36 193.084 187.074 193.241C186.792 193.398 186.569 193.627 186.406 193.929C186.242 194.23 186.16 194.596 186.16 195.025ZM195.762 192.082V193.044H191.933V192.082H195.762ZM193.049 190.312H194.184V197.354C194.184 197.674 194.23 197.915 194.323 198.075C194.42 198.232 194.541 198.338 194.689 198.393C194.84 198.444 194.998 198.469 195.165 198.469C195.29 198.469 195.393 198.463 195.473 198.45C195.553 198.434 195.617 198.421 195.665 198.412L195.896 199.431C195.819 199.46 195.712 199.489 195.574 199.518C195.436 199.55 195.261 199.566 195.05 199.566C194.729 199.566 194.415 199.497 194.107 199.359C193.802 199.221 193.549 199.011 193.347 198.729C193.148 198.447 193.049 198.091 193.049 197.661V190.312Z" fill="white"/>
</g>
<g opacity="0.4">
<rect y="215.625" width="155" height="43" fill="#FF6900"/>
<path d="M98.7031 233.802V232.744H106.091V233.802H102.994V242.595H101.801V233.802H98.7031ZM111.029 239.574V235.207H112.165V242.595H111.029V241.344H110.952C110.779 241.72 110.51 242.039 110.144 242.302C109.779 242.561 109.317 242.691 108.759 242.691C108.297 242.691 107.887 242.59 107.528 242.388C107.169 242.183 106.886 241.875 106.681 241.465C106.476 241.051 106.373 240.53 106.373 239.901V235.207H107.508V239.824C107.508 240.363 107.659 240.793 107.961 241.113C108.265 241.434 108.653 241.594 109.125 241.594C109.407 241.594 109.694 241.522 109.986 241.378C110.281 241.234 110.528 241.012 110.726 240.714C110.928 240.416 111.029 240.036 111.029 239.574ZM113.844 242.595V235.207H114.94V236.323H115.017C115.152 235.957 115.396 235.66 115.749 235.433C116.101 235.205 116.499 235.091 116.941 235.091C117.025 235.091 117.129 235.093 117.254 235.096C117.379 235.099 117.474 235.104 117.538 235.11V236.265C117.499 236.255 117.411 236.241 117.273 236.222C117.139 236.199 116.996 236.188 116.845 236.188C116.486 236.188 116.165 236.263 115.883 236.414C115.604 236.562 115.383 236.767 115.219 237.03C115.059 237.289 114.979 237.586 114.979 237.92V242.595H113.844ZM119.619 238.15V242.595H118.483V235.207H119.58V236.361H119.676C119.85 235.986 120.113 235.684 120.465 235.457C120.818 235.226 121.273 235.11 121.831 235.11C122.332 235.11 122.769 235.213 123.144 235.418C123.52 235.62 123.811 235.928 124.02 236.342C124.228 236.752 124.333 237.272 124.333 237.9V242.595H123.197V237.977C123.197 237.397 123.047 236.945 122.745 236.621C122.444 236.294 122.03 236.13 121.504 236.13C121.142 236.13 120.818 236.209 120.533 236.366C120.25 236.523 120.028 236.752 119.864 237.054C119.7 237.355 119.619 237.721 119.619 238.15ZM127.065 239.901L127.046 238.497H127.277L130.509 235.207H131.914L128.47 238.689H128.373L127.065 239.901ZM126.007 242.595V232.744H127.142V242.595H126.007ZM130.702 242.595L127.815 238.939L128.624 238.15L132.145 242.595H130.702ZM135.768 242.749C135.056 242.749 134.442 242.592 133.926 242.278C133.413 241.96 133.017 241.518 132.738 240.95C132.462 240.379 132.324 239.715 132.324 238.959C132.324 238.202 132.462 237.535 132.738 236.958C133.017 236.377 133.405 235.925 133.902 235.601C134.402 235.274 134.986 235.11 135.653 235.11C136.038 235.11 136.418 235.175 136.793 235.303C137.168 235.431 137.509 235.64 137.817 235.928C138.125 236.214 138.37 236.592 138.553 237.063C138.736 237.535 138.827 238.115 138.827 238.805V239.286H133.132V238.304H137.673C137.673 237.888 137.59 237.516 137.423 237.188C137.259 236.861 137.025 236.603 136.721 236.414C136.419 236.225 136.063 236.13 135.653 236.13C135.201 236.13 134.809 236.242 134.479 236.467C134.152 236.688 133.9 236.977 133.724 237.333C133.548 237.689 133.459 238.07 133.459 238.478V239.132C133.459 239.69 133.556 240.163 133.748 240.551C133.944 240.935 134.215 241.229 134.561 241.431C134.907 241.63 135.31 241.729 135.768 241.729C136.066 241.729 136.336 241.687 136.576 241.604C136.82 241.518 137.03 241.389 137.206 241.219C137.383 241.046 137.519 240.831 137.615 240.575L138.712 240.883C138.597 241.255 138.402 241.582 138.13 241.864C137.857 242.143 137.521 242.361 137.12 242.518C136.719 242.672 136.268 242.749 135.768 242.749ZM140.66 245.366C140.468 245.366 140.296 245.35 140.146 245.317C139.995 245.289 139.891 245.26 139.833 245.231L140.122 244.23C140.398 244.301 140.641 244.327 140.853 244.307C141.065 244.288 141.252 244.194 141.416 244.024C141.582 243.857 141.735 243.586 141.873 243.211L142.084 242.633L139.352 235.207H140.583L142.623 241.094H142.7L144.739 235.207H145.971L142.835 243.672C142.694 244.054 142.519 244.37 142.31 244.62C142.102 244.873 141.86 245.061 141.584 245.183C141.311 245.305 141.004 245.366 140.66 245.366Z" fill="white"/>
</g>
<g opacity="0.16">
<rect y="258.75" width="137" height="43" fill="#4E4E4E"/>
</g>
<path d="M105.635 280.794C105.635 281.833 105.448 282.731 105.073 283.488C104.697 284.245 104.183 284.829 103.529 285.239C102.874 285.649 102.127 285.855 101.287 285.855C100.447 285.855 99.6998 285.649 99.0456 285.239C98.3914 284.829 97.8767 284.245 97.5016 283.488C97.1264 282.731 96.9388 281.833 96.9388 280.794C96.9388 279.755 97.1264 278.858 97.5016 278.101C97.8767 277.344 98.3914 276.76 99.0456 276.35C99.6998 275.939 100.447 275.734 101.287 275.734C102.127 275.734 102.874 275.939 103.529 276.35C104.183 276.76 104.697 277.344 105.073 278.101C105.448 278.858 105.635 279.755 105.635 280.794ZM104.481 280.794C104.481 279.941 104.338 279.222 104.053 278.635C103.771 278.048 103.387 277.604 102.903 277.302C102.422 277.001 101.884 276.85 101.287 276.85C100.691 276.85 100.15 277.001 99.6661 277.302C99.1851 277.604 98.8019 278.048 98.5165 278.635C98.2343 279.222 98.0932 279.941 98.0932 280.794C98.0932 281.647 98.2343 282.367 98.5165 282.954C98.8019 283.541 99.1851 283.985 99.6661 284.287C100.15 284.588 100.691 284.739 101.287 284.739C101.884 284.739 102.422 284.588 102.903 284.287C103.387 283.985 103.771 283.541 104.053 282.954C104.338 282.367 104.481 281.647 104.481 280.794ZM111.743 282.699V278.332H112.879V285.72H111.743V284.469H111.666C111.493 284.845 111.224 285.164 110.858 285.427C110.493 285.686 110.031 285.816 109.473 285.816C109.011 285.816 108.601 285.715 108.242 285.513C107.883 285.308 107.6 285 107.395 284.59C107.19 284.176 107.087 283.655 107.087 283.026V278.332H108.222V282.949C108.222 283.488 108.373 283.918 108.675 284.238C108.979 284.559 109.367 284.719 109.839 284.719C110.121 284.719 110.408 284.647 110.7 284.503C110.995 284.359 111.242 284.137 111.44 283.839C111.642 283.541 111.743 283.161 111.743 282.699ZM117.771 278.332V279.294H113.942V278.332H117.771ZM115.058 276.562H116.193V283.604C116.193 283.924 116.24 284.165 116.333 284.325C116.429 284.482 116.551 284.588 116.698 284.643C116.849 284.694 117.008 284.719 117.174 284.719C117.3 284.719 117.402 284.713 117.482 284.7C117.562 284.684 117.627 284.671 117.675 284.662L117.906 285.681C117.829 285.71 117.721 285.739 117.583 285.768C117.445 285.8 117.271 285.816 117.059 285.816C116.738 285.816 116.424 285.747 116.116 285.609C115.812 285.471 115.558 285.261 115.356 284.979C115.157 284.697 115.058 284.341 115.058 283.911V276.562ZM119.906 285.797C119.669 285.797 119.465 285.712 119.295 285.542C119.125 285.372 119.04 285.168 119.04 284.931C119.04 284.694 119.125 284.49 119.295 284.32C119.465 284.15 119.669 284.065 119.906 284.065C120.143 284.065 120.347 284.15 120.517 284.32C120.687 284.49 120.772 284.694 120.772 284.931C120.772 285.088 120.732 285.233 120.651 285.364C120.574 285.496 120.47 285.601 120.339 285.681C120.21 285.758 120.066 285.797 119.906 285.797ZM123.236 285.797C122.999 285.797 122.795 285.712 122.625 285.542C122.455 285.372 122.37 285.168 122.37 284.931C122.37 284.694 122.455 284.49 122.625 284.32C122.795 284.15 122.999 284.065 123.236 284.065C123.473 284.065 123.677 284.15 123.847 284.32C124.017 284.49 124.102 284.694 124.102 284.931C124.102 285.088 124.062 285.233 123.982 285.364C123.905 285.496 123.8 285.601 123.669 285.681C123.541 285.758 123.396 285.797 123.236 285.797ZM126.566 285.797C126.329 285.797 126.125 285.712 125.955 285.542C125.785 285.372 125.7 285.168 125.7 284.931C125.7 284.694 125.785 284.49 125.955 284.32C126.125 284.15 126.329 284.065 126.566 284.065C126.804 284.065 127.007 284.15 127.177 284.32C127.347 284.49 127.432 284.694 127.432 284.931C127.432 285.088 127.392 285.233 127.312 285.364C127.235 285.496 127.131 285.601 126.999 285.681C126.871 285.758 126.727 285.797 126.566 285.797Z" fill="#4E4E4E"/>
<g opacity="0.64">
<g opacity="0.16">
<rect y="301.875" width="117" height="43" fill="#4E4E4E"/>
</g>
<path d="M89.7725 323.919C89.7725 324.958 89.5849 325.856 89.2097 326.613C88.8345 327.37 88.3199 327.954 87.6657 328.364C87.0115 328.774 86.2644 328.98 85.4242 328.98C84.584 328.98 83.8369 328.774 83.1827 328.364C82.5285 327.954 82.0139 327.37 81.6387 326.613C81.2635 325.856 81.0759 324.958 81.0759 323.919C81.0759 322.88 81.2635 321.983 81.6387 321.226C82.0139 320.469 82.5285 319.885 83.1827 319.475C83.8369 319.064 84.584 318.859 85.4242 318.859C86.2644 318.859 87.0115 319.064 87.6657 319.475C88.3199 319.885 88.8345 320.469 89.2097 321.226C89.5849 321.983 89.7725 322.88 89.7725 323.919ZM88.6181 323.919C88.6181 323.066 88.4754 322.347 88.19 321.76C87.9078 321.173 87.5246 320.729 87.0404 320.427C86.5594 320.126 86.0206 319.975 85.4242 319.975C84.8277 319.975 84.2874 320.126 83.8032 320.427C83.3222 320.729 82.939 321.173 82.6536 321.76C82.3714 322.347 82.2303 323.066 82.2303 323.919C82.2303 324.772 82.3714 325.492 82.6536 326.079C82.939 326.666 83.3222 327.11 83.8032 327.412C84.2874 327.713 84.8277 327.864 85.4242 327.864C86.0206 327.864 86.5594 327.713 87.0404 327.412C87.5246 327.11 87.9078 326.666 88.19 326.079C88.4754 325.492 88.6181 324.772 88.6181 323.919ZM91.2244 331.616V321.457H92.3211V322.63H92.4558C92.5391 322.502 92.6546 322.339 92.8021 322.14C92.9528 321.938 93.1677 321.758 93.4466 321.601C93.7288 321.441 94.1104 321.36 94.5914 321.36C95.2135 321.36 95.7619 321.516 96.2365 321.827C96.7111 322.138 97.0815 322.579 97.3476 323.15C97.6138 323.721 97.7469 324.394 97.7469 325.17C97.7469 325.953 97.6138 326.631 97.3476 327.205C97.0815 327.776 96.7127 328.218 96.2413 328.532C95.7699 328.843 95.2264 328.999 94.6107 328.999C94.1361 328.999 93.7561 328.92 93.4707 328.763C93.1853 328.603 92.9656 328.422 92.8117 328.22C92.6578 328.014 92.5391 327.844 92.4558 327.71H92.3596V331.616H91.2244ZM92.3403 325.151C92.3403 325.709 92.4221 326.201 92.5856 326.628C92.7492 327.051 92.9881 327.383 93.3023 327.623C93.6166 327.861 94.0014 327.979 94.4568 327.979C94.9314 327.979 95.3274 327.854 95.6448 327.604C95.9655 327.351 96.206 327.011 96.3664 326.584C96.5299 326.155 96.6117 325.677 96.6117 325.151C96.6117 324.631 96.5315 324.163 96.3712 323.746C96.214 323.326 95.9751 322.994 95.6545 322.751C95.337 322.504 94.9378 322.38 94.4568 322.38C93.995 322.38 93.607 322.497 93.2927 322.731C92.9785 322.962 92.7412 323.286 92.5808 323.703C92.4205 324.117 92.3403 324.599 92.3403 325.151ZM99.9058 328.922C99.6685 328.922 99.4649 328.837 99.2949 328.667C99.125 328.497 99.04 328.293 99.04 328.056C99.04 327.819 99.125 327.615 99.2949 327.445C99.4649 327.275 99.6685 327.19 99.9058 327.19C100.143 327.19 100.347 327.275 100.517 327.445C100.687 327.615 100.772 327.819 100.772 328.056C100.772 328.213 100.732 328.358 100.651 328.489C100.574 328.621 100.47 328.726 100.339 328.806C100.21 328.883 100.066 328.922 99.9058 328.922ZM103.236 328.922C102.999 328.922 102.795 328.837 102.625 328.667C102.455 328.497 102.37 328.293 102.37 328.056C102.37 327.819 102.455 327.615 102.625 327.445C102.795 327.275 102.999 327.19 103.236 327.19C103.473 327.19 103.677 327.275 103.847 327.445C104.017 327.615 104.102 327.819 104.102 328.056C104.102 328.213 104.062 328.358 103.982 328.489C103.905 328.621 103.8 328.726 103.669 328.806C103.541 328.883 103.396 328.922 103.236 328.922ZM106.566 328.922C106.329 328.922 106.125 328.837 105.955 328.667C105.785 328.497 105.7 328.293 105.7 328.056C105.7 327.819 105.785 327.615 105.955 327.445C106.125 327.275 106.329 327.19 106.566 327.19C106.804 327.19 107.007 327.275 107.177 327.445C107.347 327.615 107.432 327.819 107.432 328.056C107.432 328.213 107.392 328.358 107.312 328.489C107.235 328.621 107.131 328.726 106.999 328.806C106.871 328.883 106.727 328.922 106.566 328.922Z" fill="#4E4E4E"/>
</g>
</svg>
