<svg width="328" height="309" viewBox="0 0 328 309" fill="none" xmlns="http://www.w3.org/2000/svg">
<rect x="1" y="1" width="326" height="307" rx="7" fill="#0A0A0A"/>
<rect x="0.5" y="0.5" width="327" height="308" rx="7.5" stroke="white" stroke-opacity="0.08"/>
<g clip-path="url(#clip0_111_4750)">
<path d="M1 11C1 5.47715 5.47715 1 11 1H317C322.523 1 327 5.47715 327 11V286C327 291.523 322.523 296 317 296H11C5.47716 296 1 291.523 1 286V11Z" fill="#0A0A0A"/>
<g clip-path="url(#clip1_111_4750)">
<path d="M21 24.3334L22 22.4001C22.1088 22.1842 22.2741 22.0019 22.4784 21.8727C22.6828 21.7435 22.9184 21.6723 23.16 21.6667H30.3334M30.3334 21.6667C30.5371 21.6664 30.7381 21.7127 30.9211 21.8021C31.1041 21.8916 31.2642 22.0217 31.3891 22.1826C31.514 22.3436 31.6003 22.531 31.6415 22.7304C31.6827 22.9299 31.6776 23.1362 31.6267 23.3334L30.6 27.3334C30.5258 27.6211 30.3575 27.8758 30.122 28.0569C29.8865 28.2381 29.5972 28.3354 29.3 28.3334H19.6667C19.3131 28.3334 18.9739 28.1929 18.7239 27.9429C18.4738 27.6928 18.3334 27.3537 18.3334 27.0001V18.3334C18.3334 17.9798 18.4738 17.6406 18.7239 17.3906C18.9739 17.1405 19.3131 17.0001 19.6667 17.0001H22.2667C22.4897 16.9979 22.7097 17.0517 22.9065 17.1565C23.1033 17.2613 23.2707 17.4138 23.3934 17.6001L23.9334 18.4001C24.0548 18.5844 24.2201 18.7357 24.4144 18.8405C24.6087 18.9452 24.826 19 25.0467 19.0001H29C29.3537 19.0001 29.6928 19.1405 29.9428 19.3906C30.1929 19.6406 30.3334 19.9798 30.3334 20.3334V21.6667Z" stroke="white" stroke-width="1.33333" stroke-linecap="round" stroke-linejoin="round"/>
<path d="M47.483 22.5739L46.429 22.8722C46.3627 22.6965 46.2649 22.5258 46.1357 22.3601C46.0097 22.1911 45.8374 22.0518 45.6186 21.9425C45.3999 21.8331 45.1198 21.7784 44.7784 21.7784C44.3111 21.7784 43.9216 21.8861 43.6101 22.1016C43.3018 22.3137 43.1477 22.5838 43.1477 22.9119C43.1477 23.2036 43.2538 23.4339 43.4659 23.603C43.678 23.772 44.0095 23.9129 44.4602 24.0256L45.5938 24.304C46.2765 24.4697 46.7853 24.7232 47.12 25.0646C47.4548 25.4027 47.6222 25.8385 47.6222 26.3722C47.6222 26.8097 47.4962 27.2008 47.2443 27.5455C46.9957 27.8902 46.6477 28.1619 46.2003 28.3608C45.7528 28.5597 45.2325 28.6591 44.6392 28.6591C43.8603 28.6591 43.2157 28.4901 42.7053 28.152C42.1948 27.8139 41.8717 27.3201 41.7358 26.6705L42.8494 26.392C42.9555 26.803 43.156 27.1113 43.451 27.3168C43.7493 27.5223 44.1387 27.625 44.6193 27.625C45.1662 27.625 45.6004 27.509 45.9219 27.277C46.2467 27.0417 46.4091 26.7599 46.4091 26.4318C46.4091 26.1667 46.3163 25.9446 46.1307 25.7656C45.9451 25.5833 45.66 25.4474 45.2756 25.358L44.0028 25.0597C43.3035 24.8939 42.7898 24.6371 42.4616 24.2891C42.1368 23.9377 41.9744 23.4986 41.9744 22.9716C41.9744 22.5407 42.0954 22.1596 42.3374 21.8281C42.5826 21.4967 42.9157 21.2365 43.3366 21.0476C43.7609 20.8587 44.2415 20.7642 44.7784 20.7642C45.5341 20.7642 46.1274 20.9299 46.5582 21.2614C46.9924 21.5928 47.3007 22.0303 47.483 22.5739ZM49.2379 28.5V20.8636H50.3714V22.017H50.451C50.5902 21.6392 50.8421 21.3326 51.2067 21.0973C51.5713 20.862 51.9822 20.7443 52.4396 20.7443C52.5258 20.7443 52.6335 20.746 52.7628 20.7493C52.892 20.7526 52.9898 20.7576 53.0561 20.7642V21.9574C53.0163 21.9474 52.9252 21.9325 52.7827 21.9126C52.6435 21.8894 52.496 21.8778 52.3402 21.8778C51.969 21.8778 51.6375 21.9557 51.3459 22.1115C51.0575 22.264 50.8288 22.4761 50.6598 22.7479C50.4941 23.0163 50.4112 23.3229 50.4112 23.6676V28.5H49.2379ZM57.1664 28.6591C56.4505 28.6591 55.834 28.4901 55.3169 28.152C54.7999 27.8139 54.4022 27.3482 54.1238 26.755C53.8453 26.1617 53.7061 25.4839 53.7061 24.7216C53.7061 23.946 53.8487 23.2616 54.1337 22.6683C54.4221 22.0717 54.8231 21.6061 55.3368 21.2713C55.8539 20.9332 56.4571 20.7642 57.1465 20.7642C57.6834 20.7642 58.1673 20.8636 58.5982 21.0625C59.0291 21.2614 59.382 21.5398 59.6571 21.8977C59.9322 22.2557 60.1029 22.6733 60.1692 23.1506H58.9959C58.9064 22.8026 58.7076 22.4943 58.3993 22.2259C58.0944 21.9541 57.6834 21.8182 57.1664 21.8182C56.709 21.8182 56.3079 21.9375 55.9632 22.1761C55.6219 22.4115 55.3551 22.7446 55.1628 23.1754C54.9739 23.603 54.8794 24.1051 54.8794 24.6818C54.8794 25.2718 54.9722 25.7855 55.1578 26.223C55.3468 26.6605 55.6119 27.0002 55.9533 27.2422C56.298 27.4841 56.7024 27.6051 57.1664 27.6051C57.4713 27.6051 57.748 27.5521 57.9966 27.446C58.2452 27.34 58.4557 27.1875 58.628 26.9886C58.8004 26.7898 58.923 26.5511 58.9959 26.2727H60.1692C60.1029 26.7235 59.9389 27.1295 59.677 27.4908C59.4185 27.8487 59.0755 28.1338 58.6479 28.3459C58.2237 28.5547 57.7298 28.6591 57.1664 28.6591Z" fill="#D1D5DC"/>
<mask id="path-8-inside-1_111_4750" fill="white">
<path d="M25 41H240V325H25V41Z"/>
</mask>
<path d="M25 325H26V41H25H24V325H25Z" fill="black" fill-opacity="0.1" mask="url(#path-8-inside-1_111_4750)"/>
<path d="M46 56.3334L47 54.4001C47.1088 54.1842 47.2741 54.0019 47.4784 53.8727C47.6828 53.7435 47.9184 53.6723 48.16 53.6667H55.3334M55.3334 53.6667C55.5371 53.6664 55.7381 53.7127 55.9211 53.8021C56.1041 53.8916 56.2642 54.0217 56.3891 54.1826C56.514 54.3436 56.6003 54.531 56.6415 54.7304C56.6827 54.9299 56.6776 55.1362 56.6267 55.3334L55.6 59.3334C55.5258 59.6211 55.3575 59.8758 55.122 60.0569C54.8865 60.2381 54.5972 60.3354 54.3 60.3334H44.6667C44.3131 60.3334 43.9739 60.1929 43.7239 59.9429C43.4738 59.6928 43.3334 59.3537 43.3334 59.0001V50.3334C43.3334 49.9798 43.4738 49.6406 43.7239 49.3906C43.9739 49.1405 44.3131 49.0001 44.6667 49.0001H47.2667C47.4897 48.9979 47.7097 49.0517 47.9065 49.1565C48.1033 49.2613 48.2707 49.4138 48.3934 49.6001L48.9334 50.4001C49.0548 50.5844 49.2201 50.7357 49.4144 50.8405C49.6087 50.9452 49.826 51 50.0467 51.0001H54C54.3537 51.0001 54.6928 51.1405 54.9428 51.3906C55.1929 51.6406 55.3334 51.9798 55.3334 52.3334V53.6667Z" stroke="white" stroke-width="1.33333" stroke-linecap="round" stroke-linejoin="round"/>
<path d="M69.321 60.679C68.8371 60.679 68.398 60.5878 68.0036 60.4055C67.6091 60.2199 67.2959 59.9531 67.0639 59.6051C66.8319 59.2538 66.7159 58.8295 66.7159 58.3324C66.7159 57.8949 66.8021 57.5402 66.9744 57.2685C67.1468 56.9934 67.3771 56.7779 67.6655 56.6222C67.9538 56.4664 68.272 56.3504 68.62 56.2741C68.9714 56.1946 69.3243 56.1316 69.679 56.0852C70.143 56.0256 70.5192 55.9808 70.8075 55.951C71.0992 55.9179 71.3113 55.8632 71.4439 55.7869C71.5798 55.7107 71.6477 55.5781 71.6477 55.3892V55.3494C71.6477 54.8589 71.5135 54.4777 71.245 54.206C70.9799 53.9342 70.5772 53.7983 70.0369 53.7983C69.4768 53.7983 69.0376 53.9209 68.7195 54.1662C68.4013 54.4115 68.1776 54.6733 68.0483 54.9517L66.9347 54.554C67.1335 54.09 67.3987 53.7287 67.7301 53.4702C68.0649 53.2083 68.4295 53.026 68.8239 52.9233C69.2216 52.8172 69.6127 52.7642 69.9972 52.7642C70.2424 52.7642 70.5241 52.794 70.8423 52.8537C71.1638 52.91 71.4737 53.0277 71.772 53.2067C72.0736 53.3857 72.3239 53.6558 72.5227 54.017C72.7216 54.3783 72.821 54.8622 72.821 55.4688V60.5H71.6477V59.4659H71.5881C71.5085 59.6316 71.3759 59.8089 71.1903 59.9979C71.0047 60.1868 70.7578 60.3475 70.4496 60.4801C70.1413 60.6127 69.7652 60.679 69.321 60.679ZM69.5 59.625C69.964 59.625 70.3551 59.5339 70.6733 59.3516C70.9948 59.1693 71.2367 58.9339 71.3991 58.6456C71.5649 58.3572 71.6477 58.054 71.6477 57.7358V56.6619C71.598 56.7216 71.4886 56.7763 71.3196 56.826C71.1539 56.8724 70.9616 56.9138 70.7429 56.9503C70.5275 56.9834 70.317 57.0133 70.1115 57.0398C69.9093 57.063 69.7453 57.0829 69.6193 57.0994C69.3144 57.1392 69.0294 57.2038 68.7642 57.2933C68.5024 57.3795 68.2902 57.5104 68.1278 57.6861C67.9688 57.8584 67.8892 58.0937 67.8892 58.392C67.8892 58.7997 68.04 59.108 68.3416 59.3168C68.6465 59.5223 69.0327 59.625 69.5 59.625ZM74.8121 63.3636V52.8636H75.9457V54.0767H76.0849C76.171 53.9441 76.2904 53.7751 76.4428 53.5696C76.5986 53.3608 76.8207 53.1752 77.109 53.0128C77.4007 52.8471 77.7951 52.7642 78.2923 52.7642C78.9353 52.7642 79.502 52.925 79.9925 53.2464C80.4831 53.5679 80.8659 54.0237 81.141 54.6136C81.4161 55.2036 81.5536 55.8996 81.5536 56.7017C81.5536 57.5104 81.4161 58.2114 81.141 58.8047C80.8659 59.3946 80.4847 59.852 79.9975 60.1768C79.5103 60.4983 78.9485 60.6591 78.3121 60.6591C77.8216 60.6591 77.4289 60.5779 77.1339 60.4155C76.8389 60.2498 76.6119 60.0625 76.4528 59.8537C76.2937 59.6416 76.171 59.4659 76.0849 59.3267H75.9854V63.3636H74.8121ZM75.9656 56.6818C75.9656 57.2585 76.0501 57.7673 76.2191 58.2081C76.3881 58.6456 76.6351 58.9886 76.9599 59.2372C77.2847 59.4825 77.6824 59.6051 78.1531 59.6051C78.6436 59.6051 79.0529 59.4759 79.381 59.2173C79.7125 58.9555 79.9611 58.6042 80.1268 58.1634C80.2958 57.7192 80.3803 57.2254 80.3803 56.6818C80.3803 56.1449 80.2975 55.661 80.1317 55.2301C79.9693 54.7959 79.7224 54.4529 79.391 54.201C79.0629 53.9458 78.6502 53.8182 78.1531 53.8182C77.6758 53.8182 77.2747 53.9392 76.9499 54.1811C76.6251 54.4197 76.3799 54.7545 76.2141 55.1854C76.0484 55.6129 75.9656 56.1117 75.9656 56.6818ZM83.193 63.3636V52.8636H84.3265V54.0767H84.4657C84.5519 53.9441 84.6712 53.7751 84.8237 53.5696C84.9795 53.3608 85.2015 53.1752 85.4899 53.0128C85.7815 52.8471 86.176 52.7642 86.6731 52.7642C87.3161 52.7642 87.8829 52.925 88.3734 53.2464C88.8639 53.5679 89.2467 54.0237 89.5218 54.6136C89.7969 55.2036 89.9345 55.8996 89.9345 56.7017C89.9345 57.5104 89.7969 58.2114 89.5218 58.8047C89.2467 59.3946 88.8656 59.852 88.3784 60.1768C87.8912 60.4983 87.3294 60.6591 86.693 60.6591C86.2025 60.6591 85.8097 60.5779 85.5147 60.4155C85.2198 60.2498 84.9927 60.0625 84.8336 59.8537C84.6745 59.6416 84.5519 59.4659 84.4657 59.3267H84.3663V63.3636H83.193ZM84.3464 56.6818C84.3464 57.2585 84.4309 57.7673 84.6 58.2081C84.769 58.6456 85.0159 58.9886 85.3407 59.2372C85.6655 59.4825 86.0633 59.6051 86.5339 59.6051C87.0244 59.6051 87.4338 59.4759 87.7619 59.2173C88.0933 58.9555 88.3419 58.6042 88.5076 58.1634C88.6767 57.7192 88.7612 57.2254 88.7612 56.6818C88.7612 56.1449 88.6783 55.661 88.5126 55.2301C88.3502 54.7959 88.1033 54.4529 87.7718 54.201C87.4437 53.9458 87.0311 53.8182 86.5339 53.8182C86.0566 53.8182 85.6556 53.9392 85.3308 54.1811C85.006 54.4197 84.7607 54.7545 84.595 55.1854C84.4293 55.6129 84.3464 56.1117 84.3464 56.6818Z" fill="#D1D5DC"/>
<mask id="path-13-inside-2_111_4750" fill="white">
<path d="M50 73H223V133H50V73Z"/>
</mask>
<path d="M50 133H51V73H50H49V133H50Z" fill="black" fill-opacity="0.1" mask="url(#path-13-inside-2_111_4750)"/>
<path d="M77 80.3334H71C70.6463 80.3334 70.3072 80.4738 70.0572 80.7239C69.8071 80.9739 69.6666 81.3131 69.6666 81.6667V92.3334C69.6666 92.687 69.8071 93.0261 70.0572 93.2762C70.3072 93.5262 70.6463 93.6667 71 93.6667H79C79.3536 93.6667 79.6927 93.5262 79.9428 93.2762C80.1928 93.0261 80.3333 92.687 80.3333 92.3334V83.6667L77 80.3334Z" stroke="#D1D5DC" stroke-width="1.33333" stroke-linecap="round" stroke-linejoin="round"/>
<path d="M76.3334 80.3334V83C76.3334 83.3537 76.4739 83.6928 76.7239 83.9428C76.9739 84.1929 77.3131 84.3334 77.6667 84.3334H80.3334" stroke="#D1D5DC" stroke-width="1.33333" stroke-linecap="round" stroke-linejoin="round"/>
<path d="M93.2472 82.3182V92.5H92.0739V82.3182H93.2472ZM97.4929 92.679C97.009 92.679 96.5698 92.5878 96.1754 92.4055C95.781 92.2199 95.4678 91.9531 95.2358 91.6051C95.0038 91.2538 94.8878 90.8295 94.8878 90.3324C94.8878 89.8949 94.974 89.5402 95.1463 89.2685C95.3187 88.9934 95.549 88.7779 95.8374 88.6222C96.1257 88.4664 96.4439 88.3504 96.7919 88.2741C97.1432 88.1946 97.4962 88.1316 97.8509 88.0852C98.3149 88.0256 98.6911 87.9808 98.9794 87.951C99.2711 87.9179 99.4832 87.8632 99.6158 87.7869C99.7517 87.7107 99.8196 87.5781 99.8196 87.3892V87.3494C99.8196 86.8589 99.6854 86.4777 99.4169 86.206C99.1518 85.9342 98.7491 85.7983 98.2088 85.7983C97.6487 85.7983 97.2095 85.9209 96.8913 86.1662C96.5732 86.4115 96.3494 86.6733 96.2202 86.9517L95.1065 86.554C95.3054 86.09 95.5705 85.7287 95.902 85.4702C96.2367 85.2083 96.6013 85.026 96.9957 84.9233C97.3935 84.8172 97.7846 84.7642 98.169 84.7642C98.4143 84.7642 98.696 84.794 99.0142 84.8537C99.3357 84.91 99.6456 85.0277 99.9439 85.2067C100.246 85.3857 100.496 85.6558 100.695 86.017C100.893 86.3783 100.993 86.8622 100.993 87.4688V92.5H99.8196V91.4659H99.7599C99.6804 91.6316 99.5478 91.8089 99.3622 91.9979C99.1766 92.1868 98.9297 92.3475 98.6214 92.4801C98.3132 92.6127 97.937 92.679 97.4929 92.679ZM97.6719 91.625C98.1359 91.625 98.527 91.5339 98.8452 91.3516C99.1667 91.1693 99.4086 90.9339 99.571 90.6456C99.7367 90.3572 99.8196 90.054 99.8196 89.7358V88.6619C99.7699 88.7216 99.6605 88.7763 99.4915 88.826C99.3258 88.8724 99.1335 88.9138 98.9148 88.9503C98.6993 88.9834 98.4889 89.0133 98.2834 89.0398C98.0812 89.063 97.9171 89.0829 97.7912 89.0994C97.4863 89.1392 97.2012 89.2038 96.9361 89.2933C96.6742 89.3795 96.4621 89.5104 96.2997 89.6861C96.1406 89.8584 96.0611 90.0937 96.0611 90.392C96.0611 90.7997 96.2119 91.108 96.5135 91.3168C96.8184 91.5223 97.2045 91.625 97.6719 91.625ZM103.466 95.3636C103.267 95.3636 103.09 95.3471 102.934 95.3139C102.779 95.2841 102.671 95.2543 102.611 95.2244L102.909 94.1903C103.194 94.2633 103.446 94.2898 103.665 94.2699C103.884 94.25 104.078 94.1522 104.247 93.9766C104.419 93.8042 104.577 93.5241 104.719 93.1364L104.938 92.5398L102.114 84.8636H103.387L105.495 90.9489H105.574L107.682 84.8636H108.955L105.713 93.6136C105.568 94.008 105.387 94.3345 105.172 94.593C104.956 94.8549 104.706 95.0488 104.421 95.1747C104.139 95.3007 103.821 95.3636 103.466 95.3636ZM113.182 92.6591C112.493 92.6591 111.888 92.495 111.367 92.1669C110.85 91.8388 110.446 91.3797 110.154 90.7898C109.866 90.1998 109.722 89.5104 109.722 88.7216C109.722 87.9261 109.866 87.2318 110.154 86.6385C110.446 86.0452 110.85 85.5845 111.367 85.2564C111.888 84.9283 112.493 84.7642 113.182 84.7642C113.871 84.7642 114.475 84.9283 114.992 85.2564C115.512 85.5845 115.916 86.0452 116.205 86.6385C116.496 87.2318 116.642 87.9261 116.642 88.7216C116.642 89.5104 116.496 90.1998 116.205 90.7898C115.916 91.3797 115.512 91.8388 114.992 92.1669C114.475 92.495 113.871 92.6591 113.182 92.6591ZM113.182 91.6051C113.706 91.6051 114.137 91.4709 114.475 91.2024C114.813 90.9339 115.063 90.581 115.225 90.1435C115.388 89.706 115.469 89.232 115.469 88.7216C115.469 88.2112 115.388 87.7356 115.225 87.2947C115.063 86.8539 114.813 86.4976 114.475 86.2259C114.137 85.9541 113.706 85.8182 113.182 85.8182C112.658 85.8182 112.227 85.9541 111.889 86.2259C111.551 86.4976 111.301 86.8539 111.139 87.2947C110.976 87.7356 110.895 88.2112 110.895 88.7216C110.895 89.232 110.976 89.706 111.139 90.1435C111.301 90.581 111.551 90.9339 111.889 91.2024C112.227 91.4709 112.658 91.6051 113.182 91.6051ZM123.095 89.3778V84.8636H124.269V92.5H123.095V91.2074H123.016C122.837 91.5952 122.558 91.925 122.181 92.1967C121.803 92.4652 121.325 92.5994 120.749 92.5994C120.271 92.5994 119.847 92.495 119.476 92.2862C119.105 92.0741 118.813 91.7559 118.601 91.3317C118.389 90.9041 118.283 90.3655 118.283 89.7159V84.8636H119.456V89.6364C119.456 90.1932 119.612 90.6373 119.923 90.9688C120.238 91.3002 120.639 91.4659 121.127 91.4659C121.418 91.4659 121.715 91.3913 122.017 91.2422C122.321 91.093 122.577 90.8643 122.782 90.5561C122.991 90.2479 123.095 89.8551 123.095 89.3778ZM129.588 84.8636V85.858H125.631V84.8636H129.588ZM126.784 83.0341H127.958V90.3125C127.958 90.6439 128.006 90.8925 128.102 91.0582C128.201 91.2206 128.327 91.33 128.48 91.3864C128.635 91.4394 128.799 91.4659 128.972 91.4659C129.101 91.4659 129.207 91.4593 129.29 91.446C129.373 91.4295 129.439 91.4162 129.489 91.4062L129.727 92.4602C129.648 92.4901 129.537 92.5199 129.394 92.5497C129.252 92.5829 129.071 92.5994 128.852 92.5994C128.521 92.5994 128.196 92.5282 127.878 92.3857C127.563 92.2431 127.301 92.026 127.093 91.7344C126.887 91.4427 126.784 91.0748 126.784 90.6307V83.0341ZM132.058 92.5795C131.813 92.5795 131.602 92.4917 131.426 92.3161C131.251 92.1404 131.163 91.9299 131.163 91.6847C131.163 91.4394 131.251 91.2289 131.426 91.0533C131.602 90.8776 131.813 90.7898 132.058 90.7898C132.303 90.7898 132.514 90.8776 132.689 91.0533C132.865 91.2289 132.953 91.4394 132.953 91.6847C132.953 91.8471 132.911 91.9962 132.828 92.1321C132.749 92.268 132.641 92.3774 132.505 92.4602C132.373 92.5398 132.224 92.5795 132.058 92.5795ZM138.229 84.8636V85.858H134.271V84.8636H138.229ZM135.425 83.0341H136.598V90.3125C136.598 90.6439 136.646 90.8925 136.742 91.0582C136.842 91.2206 136.968 91.33 137.12 91.3864C137.276 91.4394 137.44 91.4659 137.612 91.4659C137.742 91.4659 137.848 91.4593 137.931 91.446C138.013 91.4295 138.08 91.4162 138.129 91.4062L138.368 92.4602C138.289 92.4901 138.177 92.5199 138.035 92.5497C137.892 92.5829 137.712 92.5994 137.493 92.5994C137.162 92.5994 136.837 92.5282 136.519 92.3857C136.204 92.2431 135.942 92.026 135.733 91.7344C135.528 91.4427 135.425 91.0748 135.425 90.6307V83.0341ZM145.116 86.5739L144.062 86.8722C143.996 86.6965 143.898 86.5258 143.768 86.3601C143.643 86.1911 143.47 86.0518 143.251 85.9425C143.033 85.8331 142.753 85.7784 142.411 85.7784C141.944 85.7784 141.554 85.8861 141.243 86.1016C140.935 86.3137 140.781 86.5838 140.781 86.9119C140.781 87.2036 140.887 87.4339 141.099 87.603C141.311 87.772 141.642 87.9129 142.093 88.0256L143.227 88.304C143.909 88.4697 144.418 88.7232 144.753 89.0646C145.088 89.4027 145.255 89.8385 145.255 90.3722C145.255 90.8097 145.129 91.2008 144.877 91.5455C144.629 91.8902 144.281 92.1619 143.833 92.3608C143.386 92.5597 142.865 92.6591 142.272 92.6591C141.493 92.6591 140.848 92.4901 140.338 92.152C139.828 91.8139 139.504 91.3201 139.369 90.6705L140.482 90.392C140.588 90.803 140.789 91.1113 141.084 91.3168C141.382 91.5223 141.772 91.625 142.252 91.625C142.799 91.625 143.233 91.509 143.555 91.277C143.879 91.0417 144.042 90.7599 144.042 90.4318C144.042 90.1667 143.949 89.9446 143.763 89.7656C143.578 89.5833 143.293 89.4474 142.908 89.358L141.636 89.0597C140.936 88.8939 140.423 88.6371 140.094 88.2891C139.77 87.9377 139.607 87.4986 139.607 86.9716C139.607 86.5407 139.728 86.1596 139.97 85.8281C140.215 85.4967 140.549 85.2365 140.969 85.0476C141.394 84.8587 141.874 84.7642 142.411 84.7642C143.167 84.7642 143.76 84.9299 144.191 85.2614C144.625 85.5928 144.933 86.0303 145.116 86.5739ZM147.746 84.8636L149.575 87.9858L151.405 84.8636H152.757L150.291 88.6818L152.757 92.5H151.405L149.575 89.5369L147.746 92.5H146.393L148.82 88.6818L146.393 84.8636H147.746Z" fill="#D1D5DC"/>
<path d="M77 112.333H71C70.6463 112.333 70.3072 112.474 70.0572 112.724C69.8071 112.974 69.6666 113.313 69.6666 113.667V124.333C69.6666 124.687 69.8071 125.026 70.0572 125.276C70.3072 125.526 70.6463 125.667 71 125.667H79C79.3536 125.667 79.6927 125.526 79.9428 125.276C80.1928 125.026 80.3333 124.687 80.3333 124.333V115.667L77 112.333Z" stroke="#D1D5DC" stroke-width="1.33333" stroke-linecap="round" stroke-linejoin="round"/>
<path d="M76.3334 112.333V115C76.3334 115.354 76.4739 115.693 76.7239 115.943C76.9739 116.193 77.3131 116.333 77.6667 116.333H80.3334" stroke="#D1D5DC" stroke-width="1.33333" stroke-linecap="round" stroke-linejoin="round"/>
<path d="M92.0739 127.364V116.864H93.2074V118.077H93.3466C93.4328 117.944 93.5521 117.775 93.7045 117.57C93.8603 117.361 94.0824 117.175 94.3707 117.013C94.6624 116.847 95.0568 116.764 95.554 116.764C96.197 116.764 96.7637 116.925 97.2543 117.246C97.7448 117.568 98.1276 118.024 98.4027 118.614C98.6778 119.204 98.8153 119.9 98.8153 120.702C98.8153 121.51 98.6778 122.211 98.4027 122.805C98.1276 123.395 97.7464 123.852 97.2592 124.177C96.772 124.498 96.2102 124.659 95.5739 124.659C95.0833 124.659 94.6906 124.578 94.3956 124.415C94.1006 124.25 93.8736 124.062 93.7145 123.854C93.5554 123.642 93.4328 123.466 93.3466 123.327H93.2472V127.364H92.0739ZM93.2273 120.682C93.2273 121.259 93.3118 121.767 93.4808 122.208C93.6499 122.646 93.8968 122.989 94.2216 123.237C94.5464 123.482 94.9441 123.605 95.4148 123.605C95.9053 123.605 96.3146 123.476 96.6428 123.217C96.9742 122.955 97.2228 122.604 97.3885 122.163C97.5575 121.719 97.642 121.225 97.642 120.682C97.642 120.145 97.5592 119.661 97.3935 119.23C97.2311 118.796 96.9841 118.453 96.6527 118.201C96.3246 117.946 95.9119 117.818 95.4148 117.818C94.9375 117.818 94.5365 117.939 94.2116 118.181C93.8868 118.42 93.6416 118.754 93.4759 119.185C93.3101 119.613 93.2273 120.112 93.2273 120.682ZM102.702 124.679C102.218 124.679 101.779 124.588 101.384 124.406C100.99 124.22 100.677 123.953 100.445 123.605C100.213 123.254 100.097 122.83 100.097 122.332C100.097 121.895 100.183 121.54 100.355 121.268C100.528 120.993 100.758 120.778 101.046 120.622C101.335 120.466 101.653 120.35 102.001 120.274C102.352 120.195 102.705 120.132 103.06 120.085C103.524 120.026 103.9 119.981 104.188 119.951C104.48 119.918 104.692 119.863 104.825 119.787C104.961 119.711 105.029 119.578 105.029 119.389V119.349C105.029 118.859 104.894 118.478 104.626 118.206C104.361 117.934 103.958 117.798 103.418 117.798C102.858 117.798 102.419 117.921 102.1 118.166C101.782 118.411 101.558 118.673 101.429 118.952L100.316 118.554C100.514 118.09 100.78 117.729 101.111 117.47C101.446 117.208 101.81 117.026 102.205 116.923C102.602 116.817 102.994 116.764 103.378 116.764C103.623 116.764 103.905 116.794 104.223 116.854C104.545 116.91 104.855 117.028 105.153 117.207C105.454 117.386 105.705 117.656 105.904 118.017C106.102 118.378 106.202 118.862 106.202 119.469V124.5H105.029V123.466H104.969C104.889 123.632 104.757 123.809 104.571 123.998C104.386 124.187 104.139 124.348 103.83 124.48C103.522 124.613 103.146 124.679 102.702 124.679ZM102.881 123.625C103.345 123.625 103.736 123.534 104.054 123.352C104.376 123.169 104.618 122.934 104.78 122.646C104.946 122.357 105.029 122.054 105.029 121.736V120.662C104.979 120.722 104.869 120.776 104.7 120.826C104.535 120.872 104.343 120.914 104.124 120.95C103.908 120.983 103.698 121.013 103.492 121.04C103.29 121.063 103.126 121.083 103 121.099C102.695 121.139 102.41 121.204 102.145 121.293C101.883 121.379 101.671 121.51 101.509 121.686C101.35 121.858 101.27 122.094 101.27 122.392C101.27 122.8 101.421 123.108 101.722 123.317C102.027 123.522 102.414 123.625 102.881 123.625ZM111.275 127.523C110.709 127.523 110.221 127.45 109.814 127.304C109.406 127.161 109.066 126.973 108.795 126.737C108.526 126.505 108.312 126.257 108.153 125.991L109.088 125.335C109.194 125.474 109.328 125.634 109.491 125.812C109.653 125.995 109.875 126.152 110.157 126.285C110.442 126.421 110.815 126.489 111.275 126.489C111.892 126.489 112.401 126.339 112.802 126.041C113.203 125.743 113.403 125.276 113.403 124.639V123.088H113.304C113.218 123.227 113.095 123.4 112.936 123.605C112.78 123.807 112.555 123.988 112.26 124.147C111.968 124.303 111.574 124.381 111.077 124.381C110.46 124.381 109.907 124.235 109.416 123.943C108.929 123.652 108.543 123.227 108.258 122.67C107.976 122.114 107.835 121.437 107.835 120.642C107.835 119.86 107.973 119.179 108.248 118.599C108.523 118.015 108.906 117.565 109.396 117.246C109.887 116.925 110.453 116.764 111.096 116.764C111.594 116.764 111.988 116.847 112.28 117.013C112.575 117.175 112.8 117.361 112.956 117.57C113.115 117.775 113.238 117.944 113.324 118.077H113.443V116.864H114.577V124.719C114.577 125.375 114.427 125.909 114.129 126.32C113.834 126.734 113.436 127.037 112.936 127.229C112.439 127.425 111.885 127.523 111.275 127.523ZM111.236 123.327C111.706 123.327 112.104 123.219 112.429 123.004C112.754 122.788 113.001 122.478 113.17 122.074C113.339 121.67 113.423 121.186 113.423 120.622C113.423 120.072 113.34 119.586 113.175 119.165C113.009 118.745 112.764 118.415 112.439 118.176C112.114 117.937 111.713 117.818 111.236 117.818C110.738 117.818 110.324 117.944 109.993 118.196C109.665 118.448 109.418 118.786 109.252 119.21C109.09 119.634 109.008 120.105 109.008 120.622C109.008 121.152 109.091 121.621 109.257 122.029C109.426 122.433 109.675 122.752 110.003 122.984C110.334 123.212 110.745 123.327 111.236 123.327ZM119.776 124.659C119.04 124.659 118.405 124.497 117.871 124.172C117.341 123.844 116.932 123.386 116.643 122.8C116.358 122.21 116.216 121.524 116.216 120.741C116.216 119.959 116.358 119.27 116.643 118.673C116.932 118.073 117.333 117.606 117.847 117.271C118.364 116.933 118.967 116.764 119.656 116.764C120.054 116.764 120.447 116.83 120.835 116.963C121.222 117.096 121.575 117.311 121.893 117.609C122.212 117.904 122.465 118.295 122.654 118.783C122.843 119.27 122.938 119.87 122.938 120.582V121.08H117.051V120.065H121.744C121.744 119.634 121.658 119.25 121.486 118.912C121.317 118.574 121.075 118.307 120.76 118.112C120.448 117.916 120.08 117.818 119.656 117.818C119.189 117.818 118.785 117.934 118.443 118.166C118.105 118.395 117.845 118.693 117.663 119.061C117.48 119.429 117.389 119.823 117.389 120.244V120.92C117.389 121.497 117.489 121.986 117.688 122.387C117.89 122.785 118.17 123.088 118.528 123.297C118.886 123.502 119.302 123.605 119.776 123.605C120.084 123.605 120.362 123.562 120.611 123.476C120.863 123.386 121.08 123.254 121.262 123.078C121.444 122.899 121.585 122.677 121.685 122.412L122.818 122.73C122.699 123.115 122.498 123.453 122.217 123.744C121.935 124.033 121.587 124.258 121.173 124.42C120.758 124.58 120.293 124.659 119.776 124.659ZM125.427 124.58C125.182 124.58 124.971 124.492 124.796 124.316C124.62 124.14 124.532 123.93 124.532 123.685C124.532 123.439 124.62 123.229 124.796 123.053C124.971 122.878 125.182 122.79 125.427 122.79C125.672 122.79 125.883 122.878 126.058 123.053C126.234 123.229 126.322 123.439 126.322 123.685C126.322 123.847 126.28 123.996 126.198 124.132C126.118 124.268 126.01 124.377 125.874 124.46C125.742 124.54 125.593 124.58 125.427 124.58ZM131.598 116.864V117.858H127.641V116.864H131.598ZM128.794 115.034H129.967V122.312C129.967 122.644 130.015 122.893 130.112 123.058C130.211 123.221 130.337 123.33 130.489 123.386C130.645 123.439 130.809 123.466 130.982 123.466C131.111 123.466 131.217 123.459 131.3 123.446C131.383 123.429 131.449 123.416 131.499 123.406L131.737 124.46C131.658 124.49 131.547 124.52 131.404 124.55C131.262 124.583 131.081 124.599 130.862 124.599C130.531 124.599 130.206 124.528 129.888 124.386C129.573 124.243 129.311 124.026 129.102 123.734C128.897 123.443 128.794 123.075 128.794 122.631V115.034ZM138.485 118.574L137.431 118.872C137.365 118.696 137.267 118.526 137.138 118.36C137.012 118.191 136.839 118.052 136.621 117.942C136.402 117.833 136.122 117.778 135.78 117.778C135.313 117.778 134.924 117.886 134.612 118.102C134.304 118.314 134.15 118.584 134.15 118.912C134.15 119.204 134.256 119.434 134.468 119.603C134.68 119.772 135.011 119.913 135.462 120.026L136.596 120.304C137.278 120.47 137.787 120.723 138.122 121.065C138.457 121.403 138.624 121.839 138.624 122.372C138.624 122.81 138.498 123.201 138.246 123.545C137.998 123.89 137.65 124.162 137.202 124.361C136.755 124.56 136.234 124.659 135.641 124.659C134.862 124.659 134.218 124.49 133.707 124.152C133.197 123.814 132.874 123.32 132.738 122.67L133.851 122.392C133.957 122.803 134.158 123.111 134.453 123.317C134.751 123.522 135.141 123.625 135.621 123.625C136.168 123.625 136.602 123.509 136.924 123.277C137.249 123.042 137.411 122.76 137.411 122.432C137.411 122.167 137.318 121.945 137.133 121.766C136.947 121.583 136.662 121.447 136.278 121.358L135.005 121.06C134.305 120.894 133.792 120.637 133.464 120.289C133.139 119.938 132.976 119.499 132.976 118.972C132.976 118.541 133.097 118.16 133.339 117.828C133.585 117.497 133.918 117.237 134.339 117.048C134.763 116.859 135.243 116.764 135.78 116.764C136.536 116.764 137.129 116.93 137.56 117.261C137.994 117.593 138.303 118.03 138.485 118.574ZM141.115 116.864L142.944 119.986L144.774 116.864H146.126L143.66 120.682L146.126 124.5H144.774L142.944 121.537L141.115 124.5H139.763L142.189 120.682L139.763 116.864H141.115Z" fill="#D1D5DC"/>
<path d="M46 152.333L47 150.4C47.1088 150.184 47.2741 150.002 47.4784 149.873C47.6828 149.744 47.9184 149.672 48.16 149.667H55.3334M55.3334 149.667C55.5371 149.666 55.7381 149.713 55.9211 149.802C56.1041 149.892 56.2642 150.022 56.3891 150.183C56.514 150.344 56.6003 150.531 56.6415 150.73C56.6827 150.93 56.6776 151.136 56.6267 151.333L55.6 155.333C55.5258 155.621 55.3575 155.876 55.122 156.057C54.8865 156.238 54.5972 156.335 54.3 156.333H44.6667C44.3131 156.333 43.9739 156.193 43.7239 155.943C43.4738 155.693 43.3334 155.354 43.3334 155V146.333C43.3334 145.98 43.4738 145.641 43.7239 145.391C43.9739 145.141 44.3131 145 44.6667 145H47.2667C47.4897 144.998 47.7097 145.052 47.9065 145.156C48.1033 145.261 48.2707 145.414 48.3934 145.6L48.9334 146.4C49.0548 146.584 49.2201 146.736 49.4144 146.84C49.6087 146.945 49.826 147 50.0467 147H54C54.3537 147 54.6928 147.141 54.9428 147.391C55.1929 147.641 55.3334 147.98 55.3334 148.333V149.667Z" stroke="white" stroke-width="1.33333" stroke-linecap="round" stroke-linejoin="round"/>
<path d="M70.1761 156.659C69.4602 156.659 68.8438 156.49 68.3267 156.152C67.8097 155.814 67.4119 155.348 67.1335 154.755C66.8551 154.162 66.7159 153.484 66.7159 152.722C66.7159 151.946 66.8584 151.262 67.1435 150.668C67.4318 150.072 67.8329 149.606 68.3466 149.271C68.8636 148.933 69.4669 148.764 70.1562 148.764C70.6932 148.764 71.1771 148.864 71.608 149.062C72.0388 149.261 72.3918 149.54 72.6669 149.898C72.942 150.256 73.1127 150.673 73.179 151.151H72.0057C71.9162 150.803 71.7173 150.494 71.4091 150.226C71.1042 149.954 70.6932 149.818 70.1761 149.818C69.7188 149.818 69.3177 149.937 68.973 150.176C68.6316 150.411 68.3648 150.745 68.1726 151.175C67.9837 151.603 67.8892 152.105 67.8892 152.682C67.8892 153.272 67.982 153.786 68.1676 154.223C68.3565 154.661 68.6217 155 68.9631 155.242C69.3078 155.484 69.7121 155.605 70.1761 155.605C70.4811 155.605 70.7578 155.552 71.0064 155.446C71.255 155.34 71.4654 155.188 71.6378 154.989C71.8101 154.79 71.9328 154.551 72.0057 154.273H73.179C73.1127 154.723 72.9486 155.129 72.6868 155.491C72.4283 155.849 72.0852 156.134 71.6577 156.346C71.2334 156.555 70.7396 156.659 70.1761 156.659ZM77.8461 156.659C77.1567 156.659 76.5518 156.495 76.0314 156.167C75.5144 155.839 75.11 155.38 74.8184 154.79C74.53 154.2 74.3858 153.51 74.3858 152.722C74.3858 151.926 74.53 151.232 74.8184 150.638C75.11 150.045 75.5144 149.585 76.0314 149.256C76.5518 148.928 77.1567 148.764 77.8461 148.764C78.5355 148.764 79.1387 148.928 79.6557 149.256C80.1761 149.585 80.5804 150.045 80.8688 150.638C81.1605 151.232 81.3063 151.926 81.3063 152.722C81.3063 153.51 81.1605 154.2 80.8688 154.79C80.5804 155.38 80.1761 155.839 79.6557 156.167C79.1387 156.495 78.5355 156.659 77.8461 156.659ZM77.8461 155.605C78.3697 155.605 78.8006 155.471 79.1387 155.202C79.4767 154.934 79.727 154.581 79.8894 154.143C80.0518 153.706 80.133 153.232 80.133 152.722C80.133 152.211 80.0518 151.736 79.8894 151.295C79.727 150.854 79.4767 150.498 79.1387 150.226C78.8006 149.954 78.3697 149.818 77.8461 149.818C77.3224 149.818 76.8915 149.954 76.5534 150.226C76.2154 150.498 75.9651 150.854 75.8027 151.295C75.6403 151.736 75.5591 152.211 75.5591 152.722C75.5591 153.232 75.6403 153.706 75.8027 154.143C75.9651 154.581 76.2154 154.934 76.5534 155.202C76.8915 155.471 77.3224 155.605 77.8461 155.605ZM82.9469 156.5V148.864H84.0804V150.057H84.1799C84.339 149.649 84.5958 149.333 84.9505 149.107C85.3051 148.879 85.731 148.764 86.2282 148.764C86.7319 148.764 87.1512 148.879 87.486 149.107C87.824 149.333 88.0875 149.649 88.2765 150.057H88.356C88.5516 149.662 88.8449 149.349 89.236 149.117C89.6271 148.882 90.0961 148.764 90.6429 148.764C91.3257 148.764 91.8842 148.978 92.3184 149.406C92.7525 149.83 92.9696 150.491 92.9696 151.389V156.5H91.7963V151.389C91.7963 150.826 91.6422 150.423 91.334 150.181C91.0257 149.939 90.6628 149.818 90.2452 149.818C89.7083 149.818 89.2923 149.981 88.9973 150.305C88.7024 150.627 88.5549 151.035 88.5549 151.528V156.5H87.3617V151.27C87.3617 150.836 87.2208 150.486 86.9391 150.221C86.6574 149.952 86.2944 149.818 85.8503 149.818C85.5454 149.818 85.2604 149.899 84.9952 150.062C84.7334 150.224 84.5212 150.45 84.3588 150.738C84.1998 151.023 84.1202 151.353 84.1202 151.727V156.5H82.9469ZM94.9645 159.364V148.864H96.098V150.077H96.2372C96.3234 149.944 96.4427 149.775 96.5952 149.57C96.7509 149.361 96.973 149.175 97.2614 149.013C97.553 148.847 97.9474 148.764 98.4446 148.764C99.0876 148.764 99.6544 148.925 100.145 149.246C100.635 149.568 101.018 150.024 101.293 150.614C101.568 151.204 101.706 151.9 101.706 152.702C101.706 153.51 101.568 154.211 101.293 154.805C101.018 155.395 100.637 155.852 100.15 156.177C99.6626 156.498 99.1009 156.659 98.4645 156.659C97.974 156.659 97.5812 156.578 97.2862 156.415C96.9912 156.25 96.7642 156.062 96.6051 155.854C96.446 155.642 96.3234 155.466 96.2372 155.327H96.1378V159.364H94.9645ZM96.1179 152.682C96.1179 153.259 96.2024 153.767 96.3714 154.208C96.5405 154.646 96.7874 154.989 97.1122 155.237C97.437 155.482 97.8348 155.605 98.3054 155.605C98.7959 155.605 99.2053 155.476 99.5334 155.217C99.8648 154.955 100.113 154.604 100.279 154.163C100.448 153.719 100.533 153.225 100.533 152.682C100.533 152.145 100.45 151.661 100.284 151.23C100.122 150.796 99.8748 150.453 99.5433 150.201C99.2152 149.946 98.8026 149.818 98.3054 149.818C97.8281 149.818 97.4271 149.939 97.1023 150.181C96.7775 150.42 96.5322 150.754 96.3665 151.185C96.2008 151.613 96.1179 152.112 96.1179 152.682ZM106.448 156.659C105.758 156.659 105.153 156.495 104.633 156.167C104.116 155.839 103.712 155.38 103.42 154.79C103.132 154.2 102.987 153.51 102.987 152.722C102.987 151.926 103.132 151.232 103.42 150.638C103.712 150.045 104.116 149.585 104.633 149.256C105.153 148.928 105.758 148.764 106.448 148.764C107.137 148.764 107.74 148.928 108.257 149.256C108.778 149.585 109.182 150.045 109.47 150.638C109.762 151.232 109.908 151.926 109.908 152.722C109.908 153.51 109.762 154.2 109.47 154.79C109.182 155.38 108.778 155.839 108.257 156.167C107.74 156.495 107.137 156.659 106.448 156.659ZM106.448 155.605C106.971 155.605 107.402 155.471 107.74 155.202C108.078 154.934 108.329 154.581 108.491 154.143C108.653 153.706 108.735 153.232 108.735 152.722C108.735 152.211 108.653 151.736 108.491 151.295C108.329 150.854 108.078 150.498 107.74 150.226C107.402 149.954 106.971 149.818 106.448 149.818C105.924 149.818 105.493 149.954 105.155 150.226C104.817 150.498 104.567 150.854 104.404 151.295C104.242 151.736 104.161 152.211 104.161 152.722C104.161 153.232 104.242 153.706 104.404 154.143C104.567 154.581 104.817 154.934 105.155 155.202C105.493 155.471 105.924 155.605 106.448 155.605ZM112.722 151.906V156.5H111.548V148.864H112.682V150.057H112.781C112.96 149.669 113.232 149.357 113.597 149.122C113.961 148.884 114.432 148.764 115.009 148.764C115.526 148.764 115.978 148.87 116.366 149.082C116.754 149.291 117.055 149.609 117.271 150.037C117.486 150.461 117.594 150.998 117.594 151.648V156.5H116.421V151.727C116.421 151.127 116.265 150.66 115.953 150.325C115.642 149.987 115.214 149.818 114.671 149.818C114.296 149.818 113.961 149.899 113.666 150.062C113.375 150.224 113.144 150.461 112.975 150.773C112.806 151.084 112.722 151.462 112.722 151.906ZM122.789 156.659C122.053 156.659 121.419 156.497 120.885 156.172C120.355 155.844 119.945 155.386 119.657 154.8C119.372 154.21 119.23 153.524 119.23 152.741C119.23 151.959 119.372 151.27 119.657 150.673C119.945 150.073 120.347 149.606 120.86 149.271C121.377 148.933 121.981 148.764 122.67 148.764C123.068 148.764 123.46 148.83 123.848 148.963C124.236 149.096 124.589 149.311 124.907 149.609C125.225 149.904 125.479 150.295 125.668 150.783C125.857 151.27 125.951 151.87 125.951 152.582V153.08H120.065V152.065H124.758C124.758 151.634 124.672 151.25 124.499 150.912C124.33 150.574 124.088 150.307 123.774 150.112C123.462 149.916 123.094 149.818 122.67 149.818C122.203 149.818 121.798 149.934 121.457 150.166C121.119 150.395 120.859 150.693 120.676 151.061C120.494 151.429 120.403 151.823 120.403 152.244V152.92C120.403 153.497 120.502 153.986 120.701 154.387C120.903 154.785 121.183 155.088 121.541 155.297C121.899 155.502 122.315 155.605 122.789 155.605C123.097 155.605 123.376 155.562 123.624 155.476C123.876 155.386 124.093 155.254 124.276 155.078C124.458 154.899 124.599 154.677 124.698 154.412L125.832 154.73C125.713 155.115 125.512 155.453 125.23 155.744C124.949 156.033 124.601 156.258 124.186 156.42C123.772 156.58 123.306 156.659 122.789 156.659ZM128.759 151.906V156.5H127.586V148.864H128.719V150.057H128.819C128.998 149.669 129.269 149.357 129.634 149.122C129.998 148.884 130.469 148.764 131.046 148.764C131.563 148.764 132.015 148.87 132.403 149.082C132.791 149.291 133.092 149.609 133.308 150.037C133.523 150.461 133.631 150.998 133.631 151.648V156.5H132.458V151.727C132.458 151.127 132.302 150.66 131.99 150.325C131.679 149.987 131.251 149.818 130.708 149.818C130.333 149.818 129.998 149.899 129.703 150.062C129.412 150.224 129.181 150.461 129.012 150.773C128.843 151.084 128.759 151.462 128.759 151.906ZM138.946 148.864V149.858H134.988V148.864H138.946ZM136.142 147.034H137.315V154.312C137.315 154.644 137.363 154.893 137.459 155.058C137.559 155.221 137.685 155.33 137.837 155.386C137.993 155.439 138.157 155.466 138.329 155.466C138.458 155.466 138.565 155.459 138.647 155.446C138.73 155.429 138.797 155.416 138.846 155.406L139.085 156.46C139.005 156.49 138.894 156.52 138.752 156.55C138.609 156.583 138.429 156.599 138.21 156.599C137.878 156.599 137.554 156.528 137.235 156.386C136.921 156.243 136.659 156.026 136.45 155.734C136.244 155.443 136.142 155.075 136.142 154.631V147.034ZM145.833 150.574L144.779 150.872C144.712 150.696 144.615 150.526 144.485 150.36C144.359 150.191 144.187 150.052 143.968 149.942C143.749 149.833 143.469 149.778 143.128 149.778C142.661 149.778 142.271 149.886 141.96 150.102C141.651 150.314 141.497 150.584 141.497 150.912C141.497 151.204 141.603 151.434 141.816 151.603C142.028 151.772 142.359 151.913 142.81 152.026L143.943 152.304C144.626 152.47 145.135 152.723 145.47 153.065C145.804 153.403 145.972 153.839 145.972 154.372C145.972 154.81 145.846 155.201 145.594 155.545C145.345 155.89 144.997 156.162 144.55 156.361C144.102 156.56 143.582 156.659 142.989 156.659C142.21 156.659 141.565 156.49 141.055 156.152C140.544 155.814 140.221 155.32 140.085 154.67L141.199 154.392C141.305 154.803 141.506 155.111 141.801 155.317C142.099 155.522 142.488 155.625 142.969 155.625C143.516 155.625 143.95 155.509 144.271 155.277C144.596 155.042 144.759 154.76 144.759 154.432C144.759 154.167 144.666 153.945 144.48 153.766C144.295 153.583 144.01 153.447 143.625 153.358L142.352 153.06C141.653 152.894 141.139 152.637 140.811 152.289C140.486 151.938 140.324 151.499 140.324 150.972C140.324 150.541 140.445 150.16 140.687 149.828C140.932 149.497 141.265 149.237 141.686 149.048C142.11 148.859 142.591 148.764 143.128 148.764C143.884 148.764 144.477 148.93 144.908 149.261C145.342 149.593 145.65 150.03 145.833 150.574Z" fill="#D1D5DC"/>
<mask id="path-26-inside-3_111_4750" fill="white">
<path d="M50 169H240V293H50V169Z"/>
</mask>
<path d="M50 293H51V169H50H49V293H50Z" fill="black" fill-opacity="0.1" mask="url(#path-26-inside-3_111_4750)"/>
<path d="M71 184.333L72 182.4C72.1088 182.184 72.2741 182.002 72.4784 181.873C72.6828 181.744 72.9184 181.672 73.16 181.667H80.3334M80.3334 181.667C80.5371 181.666 80.7381 181.713 80.9211 181.802C81.1041 181.892 81.2642 182.022 81.3891 182.183C81.514 182.344 81.6003 182.531 81.6415 182.73C81.6827 182.93 81.6776 183.136 81.6267 183.333L80.6 187.333C80.5258 187.621 80.3575 187.876 80.122 188.057C79.8865 188.238 79.5972 188.335 79.3 188.333H69.6667C69.3131 188.333 68.9739 188.193 68.7239 187.943C68.4738 187.693 68.3334 187.354 68.3334 187V178.333C68.3334 177.98 68.4738 177.641 68.7239 177.391C68.9739 177.141 69.3131 177 69.6667 177H72.2667C72.4897 176.998 72.7097 177.052 72.9065 177.156C73.1033 177.261 73.2707 177.414 73.3934 177.6L73.9334 178.4C74.0548 178.584 74.2201 178.736 74.4144 178.84C74.6087 178.945 74.826 179 75.0467 179H79C79.3537 179 79.6928 179.141 79.9428 179.391C80.1929 179.641 80.3334 179.98 80.3334 180.333V181.667Z" stroke="white" stroke-width="1.33333" stroke-linecap="round" stroke-linejoin="round"/>
<path d="M96.8864 185.378V180.864H98.0597V188.5H96.8864V187.207H96.8068C96.6278 187.595 96.3494 187.925 95.9716 188.197C95.5938 188.465 95.1165 188.599 94.5398 188.599C94.0625 188.599 93.6383 188.495 93.267 188.286C92.8958 188.074 92.6042 187.756 92.392 187.332C92.1799 186.904 92.0739 186.366 92.0739 185.716V180.864H93.2472V185.636C93.2472 186.193 93.4029 186.637 93.7145 186.969C94.0294 187.3 94.4304 187.466 94.9176 187.466C95.2093 187.466 95.5059 187.391 95.8075 187.242C96.1125 187.093 96.3677 186.864 96.5732 186.556C96.782 186.248 96.8864 185.855 96.8864 185.378ZM100.058 188.5V180.864H101.232V188.5H100.058ZM100.655 179.591C100.426 179.591 100.229 179.513 100.063 179.357C99.9008 179.201 99.8196 179.014 99.8196 178.795C99.8196 178.577 99.9008 178.389 100.063 178.234C100.229 178.078 100.426 178 100.655 178C100.884 178 101.079 178.078 101.241 178.234C101.407 178.389 101.49 178.577 101.49 178.795C101.49 179.014 101.407 179.201 101.241 179.357C101.079 179.513 100.884 179.591 100.655 179.591Z" fill="#D1D5DC"/>
<mask id="path-31-inside-4_111_4750" fill="white">
<path d="M75 201H190V229H75V201Z"/>
</mask>
<path d="M75 229H76V201H75H74V229H75Z" fill="black" fill-opacity="0.1" mask="url(#path-31-inside-4_111_4750)"/>
<rect x="84" y="201" width="106" height="28" rx="4" fill="url(#paint0_linear_111_4750)"/>
<path d="M102 208.333H96C95.6463 208.333 95.3072 208.474 95.0572 208.724C94.8071 208.974 94.6666 209.313 94.6666 209.667V220.333C94.6666 220.687 94.8071 221.026 95.0572 221.276C95.3072 221.526 95.6463 221.667 96 221.667H104C104.354 221.667 104.693 221.526 104.943 221.276C105.193 221.026 105.333 220.687 105.333 220.333V211.667L102 208.333Z" stroke="white" stroke-width="1.33333" stroke-linecap="round" stroke-linejoin="round"/>
<path d="M101.333 208.333V211C101.333 211.354 101.474 211.693 101.724 211.943C101.974 212.193 102.313 212.333 102.667 212.333H105.333" stroke="white" stroke-width="1.33333" stroke-linecap="round" stroke-linejoin="round"/>
<path d="M117.233 220.5V210.318H118.406V214.077H118.506C118.592 213.944 118.711 213.775 118.864 213.57C119.019 213.361 119.241 213.175 119.53 213.013C119.821 212.847 120.216 212.764 120.713 212.764C121.356 212.764 121.923 212.925 122.413 213.246C122.904 213.568 123.287 214.024 123.562 214.614C123.837 215.204 123.974 215.9 123.974 216.702C123.974 217.51 123.837 218.211 123.562 218.805C123.287 219.395 122.906 219.852 122.418 220.177C121.931 220.498 121.369 220.659 120.733 220.659C120.242 220.659 119.85 220.578 119.555 220.415C119.26 220.25 119.033 220.062 118.874 219.854C118.714 219.642 118.592 219.466 118.506 219.327H118.366V220.5H117.233ZM118.386 216.682C118.386 217.259 118.471 217.767 118.64 218.208C118.809 218.646 119.056 218.989 119.381 219.237C119.705 219.482 120.103 219.605 120.574 219.605C121.064 219.605 121.474 219.476 121.802 219.217C122.133 218.955 122.382 218.604 122.548 218.163C122.717 217.719 122.801 217.225 122.801 216.682C122.801 216.145 122.718 215.661 122.553 215.23C122.39 214.796 122.143 214.453 121.812 214.201C121.484 213.946 121.071 213.818 120.574 213.818C120.097 213.818 119.696 213.939 119.371 214.181C119.046 214.42 118.801 214.754 118.635 215.185C118.469 215.613 118.386 216.112 118.386 216.682ZM130.431 217.378V212.864H131.605V220.5H130.431V219.207H130.352C130.173 219.595 129.894 219.925 129.517 220.197C129.139 220.465 128.661 220.599 128.085 220.599C127.607 220.599 127.183 220.495 126.812 220.286C126.441 220.074 126.149 219.756 125.937 219.332C125.725 218.904 125.619 218.366 125.619 217.716V212.864H126.792V217.636C126.792 218.193 126.948 218.637 127.259 218.969C127.574 219.3 127.975 219.466 128.463 219.466C128.754 219.466 129.051 219.391 129.352 219.242C129.657 219.093 129.913 218.864 130.118 218.556C130.327 218.248 130.431 217.855 130.431 217.378ZM136.924 212.864V213.858H132.967V212.864H136.924ZM134.12 211.034H135.294V218.312C135.294 218.644 135.342 218.893 135.438 219.058C135.537 219.221 135.663 219.33 135.816 219.386C135.971 219.439 136.135 219.466 136.308 219.466C136.437 219.466 136.543 219.459 136.626 219.446C136.709 219.429 136.775 219.416 136.825 219.406L137.063 220.46C136.984 220.49 136.873 220.52 136.73 220.55C136.588 220.583 136.407 220.599 136.188 220.599C135.857 220.599 135.532 220.528 135.214 220.386C134.899 220.243 134.637 220.026 134.428 219.734C134.223 219.443 134.12 219.075 134.12 218.631V211.034ZM141.86 212.864V213.858H137.902V212.864H141.86ZM139.056 211.034H140.229V218.312C140.229 218.644 140.277 218.893 140.373 219.058C140.473 219.221 140.599 219.33 140.751 219.386C140.907 219.439 141.071 219.466 141.243 219.466C141.373 219.466 141.479 219.459 141.561 219.446C141.644 219.429 141.711 219.416 141.76 219.406L141.999 220.46C141.919 220.49 141.808 220.52 141.666 220.55C141.523 220.583 141.343 220.599 141.124 220.599C140.792 220.599 140.468 220.528 140.15 220.386C139.835 220.243 139.573 220.026 139.364 219.734C139.158 219.443 139.056 219.075 139.056 218.631V211.034ZM146.494 220.659C145.805 220.659 145.2 220.495 144.68 220.167C144.163 219.839 143.758 219.38 143.467 218.79C143.178 218.2 143.034 217.51 143.034 216.722C143.034 215.926 143.178 215.232 143.467 214.638C143.758 214.045 144.163 213.585 144.68 213.256C145.2 212.928 145.805 212.764 146.494 212.764C147.184 212.764 147.787 212.928 148.304 213.256C148.825 213.585 149.229 214.045 149.517 214.638C149.809 215.232 149.955 215.926 149.955 216.722C149.955 217.51 149.809 218.2 149.517 218.79C149.229 219.38 148.825 219.839 148.304 220.167C147.787 220.495 147.184 220.659 146.494 220.659ZM146.494 219.605C147.018 219.605 147.449 219.471 147.787 219.202C148.125 218.934 148.375 218.581 148.538 218.143C148.7 217.706 148.781 217.232 148.781 216.722C148.781 216.211 148.7 215.736 148.538 215.295C148.375 214.854 148.125 214.498 147.787 214.226C147.449 213.954 147.018 213.818 146.494 213.818C145.971 213.818 145.54 213.954 145.202 214.226C144.864 214.498 144.614 214.854 144.451 215.295C144.289 215.736 144.208 216.211 144.208 216.722C144.208 217.232 144.289 217.706 144.451 218.143C144.614 218.581 144.864 218.934 145.202 219.202C145.54 219.471 145.971 219.605 146.494 219.605ZM152.769 215.906V220.5H151.595V212.864H152.729V214.057H152.828C153.007 213.669 153.279 213.357 153.644 213.122C154.008 212.884 154.479 212.764 155.056 212.764C155.573 212.764 156.025 212.87 156.413 213.082C156.801 213.291 157.102 213.609 157.318 214.037C157.533 214.461 157.641 214.998 157.641 215.648V220.5H156.468V215.727C156.468 215.127 156.312 214.66 156 214.325C155.689 213.987 155.261 213.818 154.718 213.818C154.343 213.818 154.008 213.899 153.713 214.062C153.422 214.224 153.191 214.461 153.022 214.773C152.853 215.084 152.769 215.462 152.769 215.906ZM160.49 220.58C160.244 220.58 160.034 220.492 159.858 220.316C159.682 220.14 159.595 219.93 159.595 219.685C159.595 219.439 159.682 219.229 159.858 219.053C160.034 218.878 160.244 218.79 160.49 218.79C160.735 218.79 160.945 218.878 161.121 219.053C161.297 219.229 161.384 219.439 161.384 219.685C161.384 219.847 161.343 219.996 161.26 220.132C161.181 220.268 161.073 220.377 160.937 220.46C160.804 220.54 160.655 220.58 160.49 220.58ZM166.661 212.864V213.858H162.703V212.864H166.661ZM163.857 211.034H165.03V218.312C165.03 218.644 165.078 218.893 165.174 219.058C165.273 219.221 165.399 219.33 165.552 219.386C165.708 219.439 165.872 219.466 166.044 219.466C166.173 219.466 166.279 219.459 166.362 219.446C166.445 219.429 166.511 219.416 166.561 219.406L166.8 220.46C166.72 220.49 166.609 220.52 166.467 220.55C166.324 220.583 166.143 220.599 165.925 220.599C165.593 220.599 165.268 220.528 164.95 220.386C164.635 220.243 164.374 220.026 164.165 219.734C163.959 219.443 163.857 219.075 163.857 218.631V211.034ZM173.547 214.574L172.493 214.872C172.427 214.696 172.329 214.526 172.2 214.36C172.074 214.191 171.902 214.052 171.683 213.942C171.464 213.833 171.184 213.778 170.843 213.778C170.376 213.778 169.986 213.886 169.675 214.102C169.366 214.314 169.212 214.584 169.212 214.912C169.212 215.204 169.318 215.434 169.53 215.603C169.742 215.772 170.074 215.913 170.525 216.026L171.658 216.304C172.341 216.47 172.85 216.723 173.184 217.065C173.519 217.403 173.687 217.839 173.687 218.372C173.687 218.81 173.561 219.201 173.309 219.545C173.06 219.89 172.712 220.162 172.265 220.361C171.817 220.56 171.297 220.659 170.704 220.659C169.925 220.659 169.28 220.49 168.77 220.152C168.259 219.814 167.936 219.32 167.8 218.67L168.914 218.392C169.02 218.803 169.22 219.111 169.515 219.317C169.814 219.522 170.203 219.625 170.684 219.625C171.231 219.625 171.665 219.509 171.986 219.277C172.311 219.042 172.474 218.76 172.474 218.432C172.474 218.167 172.381 217.945 172.195 217.766C172.01 217.583 171.724 217.447 171.34 217.358L170.067 217.06C169.368 216.894 168.854 216.637 168.526 216.289C168.201 215.938 168.039 215.499 168.039 214.972C168.039 214.541 168.16 214.16 168.402 213.828C168.647 213.497 168.98 213.237 169.401 213.048C169.825 212.859 170.306 212.764 170.843 212.764C171.599 212.764 172.192 212.93 172.623 213.261C173.057 213.593 173.365 214.03 173.547 214.574ZM176.177 212.864L178.007 215.986L179.836 212.864H181.189L178.723 216.682L181.189 220.5H179.836L178.007 217.537L176.177 220.5H174.825L177.251 216.682L174.825 212.864H176.177Z" fill="white"/>
<path d="M77 240.333H71C70.6463 240.333 70.3072 240.474 70.0572 240.724C69.8071 240.974 69.6666 241.313 69.6666 241.667V252.333C69.6666 252.687 69.8071 253.026 70.0572 253.276C70.3072 253.526 70.6463 253.667 71 253.667H79C79.3536 253.667 79.6927 253.526 79.9428 253.276C80.1928 253.026 80.3333 252.687 80.3333 252.333V243.667L77 240.333Z" stroke="#D1D5DC" stroke-width="1.33333" stroke-linecap="round" stroke-linejoin="round"/>
<path d="M76.3334 240.333V243C76.3334 243.354 76.4739 243.693 76.7239 243.943C76.9739 244.193 77.3131 244.333 77.6667 244.333H80.3334" stroke="#D1D5DC" stroke-width="1.33333" stroke-linecap="round" stroke-linejoin="round"/>
<path d="M93.2472 247.906V252.5H92.0739V242.318H93.2472V246.057H93.3466C93.5256 245.662 93.794 245.349 94.152 245.117C94.5133 244.882 94.9938 244.764 95.5938 244.764C96.1141 244.764 96.5698 244.869 96.9609 245.077C97.352 245.283 97.6553 245.599 97.8707 246.027C98.0895 246.451 98.1989 246.991 98.1989 247.648V252.5H97.0256V247.727C97.0256 247.121 96.8681 246.652 96.5533 246.32C96.2417 245.986 95.8092 245.818 95.2557 245.818C94.8712 245.818 94.5265 245.899 94.2216 246.062C93.92 246.224 93.6813 246.461 93.5057 246.773C93.3333 247.084 93.2472 247.462 93.2472 247.906ZM103.397 252.659C102.661 252.659 102.026 252.497 101.493 252.172C100.962 251.844 100.553 251.386 100.265 250.8C99.9795 250.21 99.837 249.524 99.837 248.741C99.837 247.959 99.9795 247.27 100.265 246.673C100.553 246.073 100.954 245.606 101.468 245.271C101.985 244.933 102.588 244.764 103.277 244.764C103.675 244.764 104.068 244.83 104.456 244.963C104.843 245.096 105.196 245.311 105.515 245.609C105.833 245.904 106.086 246.295 106.275 246.783C106.464 247.27 106.559 247.87 106.559 248.582V249.08H100.672V248.065H105.365C105.365 247.634 105.279 247.25 105.107 246.912C104.938 246.574 104.696 246.307 104.381 246.112C104.069 245.916 103.702 245.818 103.277 245.818C102.81 245.818 102.406 245.934 102.064 246.166C101.726 246.395 101.466 246.693 101.284 247.061C101.101 247.429 101.01 247.823 101.01 248.244V248.92C101.01 249.497 101.11 249.986 101.309 250.387C101.511 250.785 101.791 251.088 102.149 251.297C102.507 251.502 102.923 251.605 103.397 251.605C103.705 251.605 103.983 251.562 104.232 251.476C104.484 251.386 104.701 251.254 104.883 251.078C105.065 250.899 105.206 250.677 105.306 250.412L106.439 250.73C106.32 251.115 106.119 251.453 105.838 251.744C105.556 252.033 105.208 252.258 104.794 252.42C104.379 252.58 103.914 252.659 103.397 252.659ZM110.44 252.679C109.956 252.679 109.517 252.588 109.123 252.406C108.728 252.22 108.415 251.953 108.183 251.605C107.951 251.254 107.835 250.83 107.835 250.332C107.835 249.895 107.921 249.54 108.094 249.268C108.266 248.993 108.496 248.778 108.785 248.622C109.073 248.466 109.391 248.35 109.739 248.274C110.09 248.195 110.443 248.132 110.798 248.085C111.262 248.026 111.638 247.981 111.927 247.951C112.218 247.918 112.43 247.863 112.563 247.787C112.699 247.711 112.767 247.578 112.767 247.389V247.349C112.767 246.859 112.633 246.478 112.364 246.206C112.099 245.934 111.696 245.798 111.156 245.798C110.596 245.798 110.157 245.921 109.839 246.166C109.52 246.411 109.297 246.673 109.167 246.952L108.054 246.554C108.253 246.09 108.518 245.729 108.849 245.47C109.184 245.208 109.549 245.026 109.943 244.923C110.341 244.817 110.732 244.764 111.116 244.764C111.362 244.764 111.643 244.794 111.961 244.854C112.283 244.91 112.593 245.028 112.891 245.207C113.193 245.386 113.443 245.656 113.642 246.017C113.841 246.378 113.94 246.862 113.94 247.469V252.5H112.767V251.466H112.707C112.628 251.632 112.495 251.809 112.309 251.998C112.124 252.187 111.877 252.348 111.569 252.48C111.26 252.613 110.884 252.679 110.44 252.679ZM110.619 251.625C111.083 251.625 111.474 251.534 111.792 251.352C112.114 251.169 112.356 250.934 112.518 250.646C112.684 250.357 112.767 250.054 112.767 249.736V248.662C112.717 248.722 112.608 248.776 112.439 248.826C112.273 248.872 112.081 248.914 111.862 248.95C111.647 248.983 111.436 249.013 111.231 249.04C111.028 249.063 110.864 249.083 110.738 249.099C110.434 249.139 110.148 249.204 109.883 249.293C109.622 249.379 109.409 249.51 109.247 249.686C109.088 249.858 109.008 250.094 109.008 250.392C109.008 250.8 109.159 251.108 109.461 251.317C109.766 251.522 110.152 251.625 110.619 251.625ZM118.815 252.659C118.178 252.659 117.617 252.498 117.129 252.177C116.642 251.852 116.261 251.395 115.986 250.805C115.711 250.211 115.573 249.51 115.573 248.702C115.573 247.9 115.711 247.204 115.986 246.614C116.261 246.024 116.644 245.568 117.134 245.246C117.625 244.925 118.192 244.764 118.835 244.764C119.332 244.764 119.725 244.847 120.013 245.013C120.305 245.175 120.527 245.361 120.679 245.57C120.835 245.775 120.956 245.944 121.042 246.077H121.142V242.318H122.315V252.5H121.181V251.327H121.042C120.956 251.466 120.833 251.642 120.674 251.854C120.515 252.062 120.288 252.25 119.993 252.415C119.698 252.578 119.305 252.659 118.815 252.659ZM118.974 251.605C119.445 251.605 119.842 251.482 120.167 251.237C120.492 250.989 120.739 250.646 120.908 250.208C121.077 249.767 121.161 249.259 121.161 248.682C121.161 248.112 121.079 247.613 120.913 247.185C120.747 246.754 120.502 246.42 120.177 246.181C119.852 245.939 119.451 245.818 118.974 245.818C118.477 245.818 118.062 245.946 117.731 246.201C117.403 246.453 117.156 246.796 116.99 247.23C116.828 247.661 116.747 248.145 116.747 248.682C116.747 249.225 116.829 249.719 116.995 250.163C117.164 250.604 117.413 250.955 117.741 251.217C118.072 251.476 118.483 251.605 118.974 251.605ZM127.678 252.659C126.942 252.659 126.307 252.497 125.774 252.172C125.243 251.844 124.834 251.386 124.546 250.8C124.261 250.21 124.118 249.524 124.118 248.741C124.118 247.959 124.261 247.27 124.546 246.673C124.834 246.073 125.235 245.606 125.749 245.271C126.266 244.933 126.869 244.764 127.559 244.764C127.956 244.764 128.349 244.83 128.737 244.963C129.125 245.096 129.478 245.311 129.796 245.609C130.114 245.904 130.368 246.295 130.556 246.783C130.745 247.27 130.84 247.87 130.84 248.582V249.08H124.953V248.065H129.647C129.647 247.634 129.56 247.25 129.388 246.912C129.219 246.574 128.977 246.307 128.662 246.112C128.351 245.916 127.983 245.818 127.559 245.818C127.091 245.818 126.687 245.934 126.346 246.166C126.007 246.395 125.747 246.693 125.565 247.061C125.383 247.429 125.292 247.823 125.292 248.244V248.92C125.292 249.497 125.391 249.986 125.59 250.387C125.792 250.785 126.072 251.088 126.43 251.297C126.788 251.502 127.204 251.605 127.678 251.605C127.986 251.605 128.265 251.562 128.513 251.476C128.765 251.386 128.982 251.254 129.164 251.078C129.347 250.899 129.488 250.677 129.587 250.412L130.721 250.73C130.601 251.115 130.401 251.453 130.119 251.744C129.837 252.033 129.489 252.258 129.075 252.42C128.661 252.58 128.195 252.659 127.678 252.659ZM132.474 252.5V244.864H133.608V246.017H133.687C133.827 245.639 134.078 245.333 134.443 245.097C134.808 244.862 135.219 244.744 135.676 244.744C135.762 244.744 135.87 244.746 135.999 244.749C136.128 244.753 136.226 244.758 136.292 244.764V245.957C136.253 245.947 136.162 245.933 136.019 245.913C135.88 245.889 135.732 245.878 135.577 245.878C135.205 245.878 134.874 245.956 134.582 246.112C134.294 246.264 134.065 246.476 133.896 246.748C133.73 247.016 133.648 247.323 133.648 247.668V252.5H132.474ZM137.513 252.58C137.268 252.58 137.057 252.492 136.882 252.316C136.706 252.14 136.618 251.93 136.618 251.685C136.618 251.439 136.706 251.229 136.882 251.053C137.057 250.878 137.268 250.79 137.513 250.79C137.758 250.79 137.969 250.878 138.144 251.053C138.32 251.229 138.408 251.439 138.408 251.685C138.408 251.847 138.366 251.996 138.284 252.132C138.204 252.268 138.096 252.377 137.96 252.46C137.828 252.54 137.679 252.58 137.513 252.58ZM143.684 244.864V245.858H139.727V244.864H143.684ZM140.88 243.034H142.053V250.312C142.053 250.644 142.101 250.893 142.197 251.058C142.297 251.221 142.423 251.33 142.575 251.386C142.731 251.439 142.895 251.466 143.067 251.466C143.197 251.466 143.303 251.459 143.386 251.446C143.469 251.429 143.535 251.416 143.585 251.406L143.823 252.46C143.744 252.49 143.633 252.52 143.49 252.55C143.348 252.583 143.167 252.599 142.948 252.599C142.617 252.599 142.292 252.528 141.974 252.386C141.659 252.243 141.397 252.026 141.188 251.734C140.983 251.443 140.88 251.075 140.88 250.631V243.034ZM150.571 246.574L149.517 246.872C149.451 246.696 149.353 246.526 149.224 246.36C149.098 246.191 148.925 246.052 148.706 245.942C148.488 245.833 148.208 245.778 147.866 245.778C147.399 245.778 147.01 245.886 146.698 246.102C146.39 246.314 146.236 246.584 146.236 246.912C146.236 247.204 146.342 247.434 146.554 247.603C146.766 247.772 147.097 247.913 147.548 248.026L148.682 248.304C149.364 248.47 149.873 248.723 150.208 249.065C150.543 249.403 150.71 249.839 150.71 250.372C150.71 250.81 150.584 251.201 150.332 251.545C150.084 251.89 149.736 252.162 149.288 252.361C148.841 252.56 148.32 252.659 147.727 252.659C146.948 252.659 146.304 252.49 145.793 252.152C145.283 251.814 144.96 251.32 144.824 250.67L145.937 250.392C146.043 250.803 146.244 251.111 146.539 251.317C146.837 251.522 147.227 251.625 147.707 251.625C148.254 251.625 148.688 251.509 149.01 251.277C149.335 251.042 149.497 250.76 149.497 250.432C149.497 250.167 149.404 249.945 149.219 249.766C149.033 249.583 148.748 249.447 148.363 249.358L147.091 249.06C146.391 248.894 145.878 248.637 145.55 248.289C145.225 247.938 145.062 247.499 145.062 246.972C145.062 246.541 145.183 246.16 145.425 245.828C145.671 245.497 146.004 245.237 146.425 245.048C146.849 244.859 147.329 244.764 147.866 244.764C148.622 244.764 149.215 244.93 149.646 245.261C150.08 245.593 150.389 246.03 150.571 246.574ZM153.201 244.864L155.03 247.986L156.86 244.864H158.212L155.746 248.682L158.212 252.5H156.86L155.03 249.537L153.201 252.5H151.849L154.275 248.682L151.849 244.864H153.201Z" fill="#D1D5DC"/>
<path d="M77 272.333H71C70.6463 272.333 70.3072 272.474 70.0572 272.724C69.8071 272.974 69.6666 273.313 69.6666 273.667V284.333C69.6666 284.687 69.8071 285.026 70.0572 285.276C70.3072 285.526 70.6463 285.667 71 285.667H79C79.3536 285.667 79.6927 285.526 79.9428 285.276C80.1928 285.026 80.3333 284.687 80.3333 284.333V275.667L77 272.333Z" stroke="#D1D5DC" stroke-width="1.33333" stroke-linecap="round" stroke-linejoin="round"/>
<path d="M76.3334 272.333V275C76.3334 275.354 76.4739 275.693 76.7239 275.943C76.9739 276.193 77.3131 276.333 77.6667 276.333H80.3334" stroke="#D1D5DC" stroke-width="1.33333" stroke-linecap="round" stroke-linejoin="round"/>
<path d="M95.4744 276.864V277.858H91.358V276.864H95.4744ZM92.5909 284.5V275.81C92.5909 275.372 92.6937 275.008 92.8991 274.716C93.1046 274.424 93.3714 274.205 93.6996 274.06C94.0277 273.914 94.3741 273.841 94.7386 273.841C95.027 273.841 95.2623 273.864 95.4446 273.911C95.6269 273.957 95.7628 274 95.8523 274.04L95.5142 275.054C95.4545 275.034 95.3717 275.009 95.2656 274.979C95.1629 274.95 95.027 274.935 94.858 274.935C94.4702 274.935 94.1901 275.032 94.0178 275.228C93.8487 275.424 93.7642 275.71 93.7642 276.088V284.5H92.5909ZM99.7562 284.659C99.0668 284.659 98.4619 284.495 97.9416 284.167C97.4245 283.839 97.0202 283.38 96.7285 282.79C96.4402 282.2 96.296 281.51 96.296 280.722C96.296 279.926 96.4402 279.232 96.7285 278.638C97.0202 278.045 97.4245 277.585 97.9416 277.256C98.4619 276.928 99.0668 276.764 99.7562 276.764C100.446 276.764 101.049 276.928 101.566 277.256C102.086 277.585 102.491 278.045 102.779 278.638C103.071 279.232 103.216 279.926 103.216 280.722C103.216 281.51 103.071 282.2 102.779 282.79C102.491 283.38 102.086 283.839 101.566 284.167C101.049 284.495 100.446 284.659 99.7562 284.659ZM99.7562 283.605C100.28 283.605 100.711 283.471 101.049 283.202C101.387 282.934 101.637 282.581 101.8 282.143C101.962 281.706 102.043 281.232 102.043 280.722C102.043 280.211 101.962 279.736 101.8 279.295C101.637 278.854 101.387 278.498 101.049 278.226C100.711 277.954 100.28 277.818 99.7562 277.818C99.2325 277.818 98.8017 277.954 98.4636 278.226C98.1255 278.498 97.8753 278.854 97.7129 279.295C97.5505 279.736 97.4693 280.211 97.4693 280.722C97.4693 281.232 97.5505 281.706 97.7129 282.143C97.8753 282.581 98.1255 282.934 98.4636 283.202C98.8017 283.471 99.2325 283.605 99.7562 283.605ZM107.959 284.659C107.27 284.659 106.665 284.495 106.145 284.167C105.628 283.839 105.223 283.38 104.932 282.79C104.643 282.2 104.499 281.51 104.499 280.722C104.499 279.926 104.643 279.232 104.932 278.638C105.223 278.045 105.628 277.585 106.145 277.256C106.665 276.928 107.27 276.764 107.959 276.764C108.649 276.764 109.252 276.928 109.769 277.256C110.289 277.585 110.694 278.045 110.982 278.638C111.274 279.232 111.42 279.926 111.42 280.722C111.42 281.51 111.274 282.2 110.982 282.79C110.694 283.38 110.289 283.839 109.769 284.167C109.252 284.495 108.649 284.659 107.959 284.659ZM107.959 283.605C108.483 283.605 108.914 283.471 109.252 283.202C109.59 282.934 109.84 282.581 110.003 282.143C110.165 281.706 110.246 281.232 110.246 280.722C110.246 280.211 110.165 279.736 110.003 279.295C109.84 278.854 109.59 278.498 109.252 278.226C108.914 277.954 108.483 277.818 107.959 277.818C107.436 277.818 107.005 277.954 106.667 278.226C106.329 278.498 106.078 278.854 105.916 279.295C105.754 279.736 105.672 280.211 105.672 280.722C105.672 281.232 105.754 281.706 105.916 282.143C106.078 282.581 106.329 282.934 106.667 283.202C107.005 283.471 107.436 283.605 107.959 283.605ZM116.381 276.864V277.858H112.424V276.864H116.381ZM113.577 275.034H114.751V282.312C114.751 282.644 114.799 282.893 114.895 283.058C114.994 283.221 115.12 283.33 115.273 283.386C115.428 283.439 115.592 283.466 115.765 283.466C115.894 283.466 116 283.459 116.083 283.446C116.166 283.429 116.232 283.416 116.282 283.406L116.52 284.46C116.441 284.49 116.33 284.52 116.187 284.55C116.045 284.583 115.864 284.599 115.645 284.599C115.314 284.599 114.989 284.528 114.671 284.386C114.356 284.243 114.094 284.026 113.885 283.734C113.68 283.443 113.577 283.075 113.577 282.631V275.034ZM121.115 284.659C120.38 284.659 119.745 284.497 119.211 284.172C118.681 283.844 118.272 283.386 117.983 282.8C117.698 282.21 117.556 281.524 117.556 280.741C117.556 279.959 117.698 279.27 117.983 278.673C118.272 278.073 118.673 277.606 119.186 277.271C119.703 276.933 120.307 276.764 120.996 276.764C121.394 276.764 121.787 276.83 122.174 276.963C122.562 277.096 122.915 277.311 123.233 277.609C123.551 277.904 123.805 278.295 123.994 278.783C124.183 279.27 124.277 279.87 124.277 280.582V281.08H118.391V280.065H123.084C123.084 279.634 122.998 279.25 122.826 278.912C122.657 278.574 122.415 278.307 122.1 278.112C121.788 277.916 121.42 277.818 120.996 277.818C120.529 277.818 120.124 277.934 119.783 278.166C119.445 278.395 119.185 278.693 119.002 279.061C118.82 279.429 118.729 279.823 118.729 280.244V280.92C118.729 281.497 118.828 281.986 119.027 282.387C119.23 282.785 119.51 283.088 119.868 283.297C120.225 283.502 120.641 283.605 121.115 283.605C121.424 283.605 121.702 283.562 121.951 283.476C122.203 283.386 122.42 283.254 122.602 283.078C122.784 282.899 122.925 282.677 123.025 282.412L124.158 282.73C124.039 283.115 123.838 283.453 123.556 283.744C123.275 284.033 122.927 284.258 122.512 284.42C122.098 284.58 121.632 284.659 121.115 284.659ZM125.912 284.5V276.864H127.045V278.017H127.125C127.264 277.639 127.516 277.333 127.881 277.097C128.245 276.862 128.656 276.744 129.113 276.744C129.2 276.744 129.307 276.746 129.437 276.749C129.566 276.753 129.664 276.758 129.73 276.764V277.957C129.69 277.947 129.599 277.933 129.456 277.913C129.317 277.889 129.17 277.878 129.014 277.878C128.643 277.878 128.311 277.956 128.02 278.112C127.731 278.264 127.503 278.476 127.334 278.748C127.168 279.016 127.085 279.323 127.085 279.668V284.5H125.912ZM130.95 284.58C130.705 284.58 130.495 284.492 130.319 284.316C130.143 284.14 130.056 283.93 130.056 283.685C130.056 283.439 130.143 283.229 130.319 283.053C130.495 282.878 130.705 282.79 130.95 282.79C131.196 282.79 131.406 282.878 131.582 283.053C131.758 283.229 131.845 283.439 131.845 283.685C131.845 283.847 131.804 283.996 131.721 284.132C131.642 284.268 131.534 284.377 131.398 284.46C131.265 284.54 131.116 284.58 130.95 284.58ZM137.121 276.864V277.858H133.164V276.864H137.121ZM134.317 275.034H135.491V282.312C135.491 282.644 135.539 282.893 135.635 283.058C135.734 283.221 135.86 283.33 136.013 283.386C136.169 283.439 136.333 283.466 136.505 283.466C136.634 283.466 136.74 283.459 136.823 283.446C136.906 283.429 136.972 283.416 137.022 283.406L137.261 284.46C137.181 284.49 137.07 284.52 136.928 284.55C136.785 284.583 136.604 284.599 136.386 284.599C136.054 284.599 135.729 284.528 135.411 284.386C135.096 284.243 134.835 284.026 134.626 283.734C134.42 283.443 134.317 283.075 134.317 282.631V275.034ZM144.008 278.574L142.954 278.872C142.888 278.696 142.79 278.526 142.661 278.36C142.535 278.191 142.363 278.052 142.144 277.942C141.925 277.833 141.645 277.778 141.304 277.778C140.836 277.778 140.447 277.886 140.135 278.102C139.827 278.314 139.673 278.584 139.673 278.912C139.673 279.204 139.779 279.434 139.991 279.603C140.203 279.772 140.535 279.913 140.986 280.026L142.119 280.304C142.802 280.47 143.311 280.723 143.645 281.065C143.98 281.403 144.148 281.839 144.148 282.372C144.148 282.81 144.022 283.201 143.77 283.545C143.521 283.89 143.173 284.162 142.726 284.361C142.278 284.56 141.758 284.659 141.165 284.659C140.386 284.659 139.741 284.49 139.231 284.152C138.72 283.814 138.397 283.32 138.261 282.67L139.375 282.392C139.481 282.803 139.681 283.111 139.976 283.317C140.275 283.522 140.664 283.625 141.145 283.625C141.692 283.625 142.126 283.509 142.447 283.277C142.772 283.042 142.934 282.76 142.934 282.432C142.934 282.167 142.842 281.945 142.656 281.766C142.47 281.583 142.185 281.447 141.801 281.358L140.528 281.06C139.829 280.894 139.315 280.637 138.987 280.289C138.662 279.938 138.5 279.499 138.5 278.972C138.5 278.541 138.621 278.16 138.863 277.828C139.108 277.497 139.441 277.237 139.862 277.048C140.286 276.859 140.767 276.764 141.304 276.764C142.059 276.764 142.653 276.93 143.084 277.261C143.518 277.593 143.826 278.03 144.008 278.574ZM146.638 276.864L148.468 279.986L150.297 276.864H151.65L149.184 280.682L151.65 284.5H150.297L148.468 281.537L146.638 284.5H145.286L147.712 280.682L145.286 276.864H146.638Z" fill="#D1D5DC"/>
<line x1="24.5" y1="39" x2="24.5" y2="293" stroke="white" stroke-opacity="0.1"/>
<line x1="50.5" y1="69" x2="50.5" y2="137" stroke="white" stroke-opacity="0.1"/>
<line x1="50.5" y1="172" x2="50.5" y2="293" stroke="white" stroke-opacity="0.1"/>
<line x1="75.5" y1="201" x2="75.5" y2="229" stroke="white" stroke-opacity="0.1"/>
</g>
</g>
<defs>
<linearGradient id="paint0_linear_111_4750" x1="84" y1="215" x2="190" y2="215" gradientUnits="userSpaceOnUse">
<stop offset="0.0898588" stop-color="#FF7700"/>
<stop offset="0.274395" stop-color="#FF6900"/>
<stop offset="0.526035" stop-color="#C25000" stop-opacity="0.558091"/>
<stop offset="0.728872" stop-color="#AA4600" stop-opacity="0.38"/>
<stop offset="1" stop-color="#993F00" stop-opacity="0"/>
</linearGradient>
<clipPath id="clip0_111_4750">
<path d="M1 11C1 5.47715 5.47715 1 11 1H317C322.523 1 327 5.47715 327 11V286C327 291.523 322.523 296 317 296H11C5.47716 296 1 291.523 1 286V11Z" fill="white"/>
</clipPath>
<clipPath id="clip1_111_4750">
<path d="M1 8.99999C1 4.58172 4.58172 1 9 1H319C323.418 1 327 4.58172 327 9V288C327 292.418 323.418 296 319 296H9C4.58173 296 1 292.418 1 288V8.99999Z" fill="white"/>
</clipPath>
</defs>
</svg>
