<svg width="16" height="16" viewBox="0 0 16 16" fill="none" xmlns="http://www.w3.org/2000/svg">
<path d="M4.00004 9.3334L5.00004 7.40006C5.10876 7.18416 5.27412 7.00187 5.47845 6.8727C5.68277 6.74352 5.91837 6.67233 6.16004 6.66673H13.3334M13.3334 6.66673C13.5371 6.66637 13.7381 6.71269 13.9211 6.80212C14.1041 6.89155 14.2642 7.02172 14.3891 7.18264C14.514 7.34356 14.6003 7.53095 14.6415 7.73043C14.6827 7.92991 14.6776 8.13618 14.6267 8.3334L13.6 12.3334C13.5258 12.6211 13.3575 12.8758 13.122 13.0569C12.8865 13.2381 12.5972 13.3354 12.3 13.3334H2.66671C2.31309 13.3334 1.97395 13.1929 1.7239 12.9429C1.47385 12.6928 1.33337 12.3537 1.33337 12.0001V3.3334C1.33337 2.97978 1.47385 2.64064 1.7239 2.39059C1.97395 2.14054 2.31309 2.00006 2.66671 2.00006H5.26671C5.4897 1.99788 5.70968 2.05166 5.90651 2.15648C6.10334 2.2613 6.27073 2.41381 6.39337 2.60006L6.93337 3.40006C7.05478 3.58442 7.22006 3.73574 7.41437 3.84047C7.60869 3.94519 7.82597 4.00003 8.04671 4.00006H12C12.3537 4.00006 12.6928 4.14054 12.9428 4.39059C13.1929 4.64064 13.3334 4.97978 13.3334 5.3334V6.66673Z" stroke="white" stroke-width="1.33333" stroke-linecap="round" stroke-linejoin="round"/>
</svg>
